<?xml version="1.0" standalone="no"?>
<!DOCTYPE svg PUBLIC "-//W3C//DTD SVG 20010904//EN"
 "http://www.w3.org/TR/2001/REC-SVG-20010904/DTD/svg10.dtd">
<svg version="1.0" xmlns="http://www.w3.org/2000/svg"
 width="201.000000pt" height="251.000000pt" viewBox="0 0 201.000000 251.000000"
 preserveAspectRatio="xMidYMid meet">

<g transform="translate(0.000000,251.000000) scale(0.100000,-0.100000)"
fill="#000000" stroke="none">
<path d="M0 2332 c0 -117 7 -237 21 -352 11 -96 23 -196 26 -222 3 -27 9 -48
12 -48 4 0 52 25 106 55 55 31 110 58 121 61 21 5 26 18 37 86 7 37 43 89 73
103 18 8 34 19 36 24 7 20 102 38 148 28 25 -5 55 -9 68 -9 12 0 22 -4 22 -10
0 -5 3 -7 8 -4 4 2 23 -3 42 -11 19 -9 38 -15 43 -15 4 1 7 -3 7 -8 0 -6 6
-10 13 -10 8 0 19 -11 25 -25 16 -36 61 -31 69 7 7 34 82 105 120 113 15 4 40
11 56 17 15 6 43 8 62 5 19 -3 35 -2 35 2 0 19 53 1 73 -25 11 -15 32 -39 44
-52 13 -14 23 -32 23 -41 0 -10 4 -21 9 -27 5 -5 11 -20 13 -34 3 -24 6 -25
103 -30 93 -5 105 -8 170 -44 98 -55 210 -122 280 -170 33 -23 79 -53 103 -68
l42 -28 0 455 0 455 -1005 0 -1005 0 0 -178z"/>
<path d="M185 1730 c-8 -14 3 -98 16 -122 15 -27 43 -23 35 5 -3 12 -9 41 -12
64 -7 46 -27 72 -39 53z"/>
<path d="M330 1678 c1 -23 25 -44 53 -46 15 -1 27 3 27 8 0 6 -7 10 -15 10 -9
0 -15 9 -15 21 0 18 -2 19 -15 9 -10 -9 -15 -9 -15 -1 0 6 -4 11 -10 11 -5 0
-10 -6 -10 -12z"/>
<path d="M1455 1680 c-4 -6 3 -10 14 -10 25 0 27 6 6 13 -8 4 -17 2 -20 -3z"/>
<path d="M1821 1597 c-14 -81 -14 -87 3 -87 15 0 26 42 26 101 0 62 -17 54
-29 -14z"/>
<path d="M400 1596 c0 -7 7 -19 15 -26 8 -7 15 -20 15 -28 0 -12 -3 -13 -12
-4 -8 8 -16 3 -30 -23 -21 -40 -22 -45 -9 -45 12 0 91 78 91 90 0 6 7 10 16
10 8 0 13 4 9 10 -3 5 -12 7 -19 4 -7 -3 -16 2 -19 10 -8 20 -57 21 -57 2z"/>
<path d="M338 1436 c-10 -7 -18 -19 -18 -27 0 -8 -9 -25 -20 -39 -11 -14 -20
-30 -20 -37 0 -7 -7 -16 -15 -21 -11 -6 -18 -30 -22 -83 -3 -41 -11 -93 -19
-115 -17 -54 -21 -308 -4 -349 7 -19 9 -55 4 -102 -5 -54 -3 -73 6 -73 6 0 0
-14 -14 -31 -34 -40 -42 -74 -26 -117 7 -20 13 -49 14 -66 1 -27 5 -31 31 -32
17 -1 55 -5 85 -8 30 -4 73 -3 95 2 22 6 31 10 19 11 -25 1 -46 40 -33 63 7
12 4 14 -18 10 l-27 -5 22 24 c20 20 20 24 6 32 -14 8 -13 12 6 32 20 22 21
24 4 33 -15 9 -16 12 -3 24 8 8 23 17 33 21 30 12 13 18 -22 8 -28 -9 -32 -7
-32 10 0 11 7 22 16 26 8 3 13 11 10 19 -3 7 2 18 9 24 11 9 12 17 4 31 -7 14
-6 19 3 19 8 0 9 3 1 11 -5 5 -8 27 -6 47 4 35 -33 188 -56 229 -15 26 -29
130 -20 145 4 6 5 17 1 22 -10 16 -11 68 -2 104 5 19 5 30 -1 27 -5 -4 -9 -2
-9 4 0 5 6 11 13 14 10 4 10 7 0 18 -15 15 -17 33 -4 24 5 -3 12 -1 15 4 4 5
-2 11 -11 13 -16 3 -15 6 5 26 26 26 26 47 0 28z"/>
<path d="M930 1394 c-41 -13 -80 -24 -87 -24 -27 0 -26 -43 2 -53 9 -4 11 1 8
14 -4 15 0 19 21 19 14 0 26 5 26 10 0 13 47 13 55 -1 4 -6 13 -8 21 -5 7 3
18 -3 24 -12 10 -15 11 -14 7 5 -3 12 1 30 9 40 30 40 18 41 -86 7z"/>
<path d="M1080 1404 c0 -13 8 -15 51 -9 41 6 50 5 44 -6 -6 -9 -3 -11 9 -6 10
4 22 7 27 7 5 0 9 5 9 11 0 5 -4 7 -10 4 -5 -3 -10 -1 -10 4 0 7 -24 11 -60
11 -48 0 -60 -3 -60 -16z"/>
<path d="M1230 1393 c-24 -28 -20 -44 5 -19 19 19 32 20 37 4 3 -8 6 -7 10 3
4 9 -2 20 -12 27 -14 9 -22 6 -40 -15z"/>
<path d="M762 1313 c-100 -84 -108 -92 -86 -93 11 0 31 11 44 25 13 14 29 25
35 25 6 0 19 16 28 35 9 19 16 35 14 35 -1 0 -17 -12 -35 -27z"/>
<path d="M1011 1304 c0 -11 3 -14 6 -6 3 7 2 16 -1 19 -3 4 -6 -2 -5 -13z"/>
<path d="M1190 1219 c-19 -10 -40 -19 -47 -19 -6 0 -14 -14 -18 -31 -7 -32 1
-52 14 -31 4 6 31 16 60 22 63 12 64 13 91 50 l21 30 -43 -1 c-24 0 -59 -9
-78 -20z"/>
<path d="M1006 1205 c-9 -26 -7 -32 5 -12 6 10 9 21 6 23 -2 3 -7 -2 -11 -11z"/>
<path d="M764 1190 c-12 -5 -25 -13 -29 -19 -3 -6 -17 -11 -30 -11 -51 0 -71
-30 -46 -69 8 -12 13 -11 29 9 l19 24 17 -32 c29 -56 87 -64 148 -21 56 40 21
130 -50 128 -20 0 -47 -4 -58 -9z"/>
<path d="M1067 1073 c-23 -4 -26 -7 -16 -19 10 -12 9 -13 -5 -8 -9 3 -16 1
-16 -6 0 -6 -4 -8 -10 -5 -5 3 -18 1 -27 -4 -17 -10 -17 -10 0 -11 9 0 20 1
23 3 3 1 11 -7 17 -19 12 -20 13 -20 45 13 18 18 27 33 21 33 -6 0 -9 7 -5 15
3 8 4 14 3 14 -1 -1 -15 -4 -30 -6z"/>
<path d="M677 1055 c5 -14 43 -28 43 -17 0 4 -11 12 -24 18 -19 9 -23 9 -19
-1z"/>
<path d="M1037 941 c-4 -20 -16 -33 -37 -42 -16 -8 -30 -20 -30 -26 0 -18 11
-16 61 7 24 11 62 20 84 21 28 1 33 3 15 6 -14 3 -37 18 -52 34 -16 16 -30 29
-32 29 -2 0 -6 -13 -9 -29z"/>
<path d="M1588 910 c-7 -24 -3 -38 8 -28 3 4 4 17 2 30 l-3 23 -7 -25z"/>
<path d="M1601 854 c0 -6 -18 -18 -38 -25 -34 -13 -35 -15 -20 -31 9 -9 17
-23 17 -32 0 -24 71 -68 87 -54 7 6 17 8 20 4 4 -4 1 -11 -7 -16 -13 -8 -12
-10 3 -10 9 0 17 6 17 14 0 19 -24 37 -36 27 -5 -4 -20 -2 -34 6 l-25 15 28
-7 c27 -5 27 -5 16 17 -7 13 -16 41 -20 63 -3 22 -7 35 -8 29z m-4 -58 l-1
-35 -23 27 c-24 28 -23 43 2 22 12 -10 15 -10 15 4 0 9 2 16 4 16 2 0 4 -15 3
-34z"/>
<path d="M1175 779 c-10 -15 1 -23 20 -15 9 3 13 10 10 16 -8 13 -22 13 -30
-1z"/>
<path d="M1140 721 c0 -6 5 -13 10 -16 6 -3 10 1 10 9 0 9 -4 16 -10 16 -5 0
-10 -4 -10 -9z"/>
<path d="M1576 663 c4 -32 8 -62 8 -68 1 -5 5 -15 9 -22 4 -6 2 -15 -4 -18 -5
-4 -8 -13 -5 -21 6 -17 -20 -106 -47 -159 -33 -65 -37 -74 -37 -90 0 -8 -7
-15 -15 -15 -24 0 -18 -19 8 -24 32 -6 153 -24 216 -32 42 -5 52 -3 46 6 -5 9
-4 11 3 6 7 -4 17 -4 24 0 8 5 6 10 -8 15 -18 7 -18 8 2 8 19 1 23 9 29 59 3
31 13 67 20 78 8 12 14 30 13 40 0 11 3 34 7 52 6 26 4 32 -9 32 -9 0 -16 5
-16 10 0 6 5 10 10 10 6 0 10 7 10 15 0 8 -4 15 -10 15 -5 0 -10 -4 -10 -9 0
-5 -9 -13 -21 -16 -11 -4 -24 -18 -29 -31 -5 -13 -14 -24 -19 -24 -15 0 -25
22 -13 29 16 9 -10 80 -37 102 -12 10 -21 26 -21 37 0 14 -9 22 -30 27 -16 3
-41 15 -55 27 l-25 20 6 -59z"/>
<path d="M107 370 c-4 -15 0 -20 15 -20 13 0 18 6 16 17 -5 24 -25 27 -31 3z"/>
<path d="M707 275 c-9 -8 -19 -29 -22 -47 -4 -17 -16 -40 -26 -52 -11 -11 -19
-30 -19 -43 0 -13 -6 -23 -13 -23 -7 0 -21 -13 -30 -30 -10 -16 -22 -30 -28
-30 -5 0 -9 -11 -9 -25 0 -24 2 -25 70 -25 56 0 70 3 70 15 0 8 7 15 15 15 8
0 20 9 27 20 19 30 28 24 30 -17 1 -35 2 -34 8 12 l7 50 1 -47 2 -48 225 0
c193 0 225 2 225 15 0 8 7 15 15 15 23 0 98 40 111 59 43 61 50 65 101 62 49
-2 51 -1 55 29 4 25 1 31 -18 36 -12 3 -30 4 -40 3 -11 -2 -25 0 -31 4 -20 12
-357 49 -577 63 -78 6 -100 4 -107 -7 -6 -10 -9 -10 -9 -1 0 16 -15 15 -33 -3z"/>
<path d="M1540 200 c0 -5 5 -10 10 -10 6 0 10 5 10 10 0 6 -4 10 -10 10 -5 0
-10 -4 -10 -10z"/>
<path d="M1738 133 c7 -3 16 -2 19 1 4 3 -2 6 -13 5 -11 0 -14 -3 -6 -6z"/>
<path d="M1974 125 c-5 -11 -17 -13 -52 -9 -30 3 -42 1 -33 -5 19 -12 -20 -51
-52 -51 -13 0 -32 -7 -43 -15 -10 -8 -27 -15 -36 -15 -10 0 -18 -7 -18 -15 0
-13 22 -15 135 -15 l135 0 0 70 c0 56 -3 70 -15 70 -9 0 -18 -7 -21 -15z"/>
</g>
</svg>
