<?xml version="1.0" standalone="no"?>
<!DOCTYPE svg PUBLIC "-//W3C//DTD SVG 20010904//EN"
 "http://www.w3.org/TR/2001/REC-SVG-20010904/DTD/svg10.dtd">
<svg version="1.0" xmlns="http://www.w3.org/2000/svg"
 width="640.000000pt" height="640.000000pt" viewBox="0 0 640.000000 640.000000"
 preserveAspectRatio="xMidYMid meet">

<g transform="translate(0.000000,640.000000) scale(0.100000,-0.100000)"
fill="#000000" stroke="none">
<path d="M2072 5348 c-14 -14 -16 -28 -3 -28 9 0 24 30 18 36 -2 2 -9 -2 -15
-8z"/>
<path d="M2190 5291 c0 -6 8 -15 18 -18 9 -4 28 -17 42 -30 14 -13 33 -23 43
-23 31 0 2 37 -40 51 -21 6 -44 16 -50 22 -9 6 -13 6 -13 -2z"/>
<path d="M2067 5224 c-9 -53 -2 -62 41 -54 20 3 39 6 42 6 3 0 14 5 25 12 22
12 15 15 -27 12 -31 -2 -76 24 -59 35 15 9 14 25 -3 25 -8 0 -16 -15 -19 -36z"/>
<path d="M2330 5190 c20 -13 33 -13 25 0 -3 6 -14 10 -23 10 -15 0 -15 -2 -2
-10z"/>
<path d="M4507 5165 c-10 -20 -24 -35 -34 -35 -13 0 -14 -3 -6 -8 17 -11 -5
-82 -25 -82 -8 0 -21 -8 -28 -17 -12 -17 -13 -16 -14 7 -1 23 -2 23 -10 5 -8
-19 -9 -19 -9 0 -1 25 -16 10 -35 -37 -14 -33 -14 -37 -1 -32 9 4 15 0 15 -10
0 -24 17 -19 24 7 5 17 8 19 15 8 7 -11 11 -9 21 9 7 13 25 35 40 49 24 22 64
96 83 154 12 32 -19 18 -36 -18z"/>
<path d="M2388 5173 c6 -2 12 -11 12 -19 0 -8 7 -14 15 -14 8 0 15 -4 15 -10
0 -5 4 -10 9 -10 18 0 -1 38 -25 49 -14 6 -28 11 -32 10 -4 0 -1 -3 6 -6z"/>
<path d="M3150 5163 c0 -13 5 -23 10 -23 13 0 13 11 0 30 -8 12 -10 11 -10 -7z"/>
<path d="M3328 5153 c-3 -25 -6 -28 -37 -25 -19 2 -31 0 -27 -6 11 -18 -31
-45 -59 -38 -24 6 -26 4 -23 -21 2 -20 12 -32 35 -43 19 -9 33 -23 33 -33 0
-10 7 -25 15 -33 8 -9 15 -26 15 -40 0 -13 5 -24 10 -24 6 0 10 -9 10 -19 0
-28 11 -52 21 -45 5 3 9 -1 9 -9 0 -8 9 -22 20 -32 13 -12 19 -29 18 -54 -1
-48 10 -98 33 -141 11 -19 19 -42 19 -52 0 -9 5 -20 10 -23 6 -3 10 -2 10 3 0
5 10 8 23 7 14 -1 23 -9 25 -23 2 -12 7 -22 12 -22 5 0 7 -6 4 -14 -3 -8 -1
-17 4 -20 5 -3 12 3 15 14 3 11 1 20 -5 20 -6 0 -8 12 -5 28 3 15 1 56 -5 92
-11 63 -15 71 -82 143 -19 20 -22 33 -20 95 3 70 -12 125 -31 118 -13 -5 -19
75 -6 83 5 4 12 22 14 41 7 47 8 49 16 21 10 -36 31 -38 32 -4 0 15 3 21 6 13
11 -36 27 -60 40 -60 7 0 13 -9 13 -20 0 -22 10 -26 27 -9 17 17 61 0 67 -27
7 -25 34 -32 53 -13 8 8 13 7 19 -2 4 -7 3 -14 -3 -16 -13 -5 2 -116 16 -121
6 -2 11 -12 11 -23 0 -10 4 -19 8 -19 4 0 16 -22 26 -49 15 -43 21 -49 52 -54
20 -3 47 -1 62 4 20 8 35 6 64 -7 31 -14 43 -15 63 -6 14 6 25 16 25 22 0 5 8
10 18 11 10 0 12 3 5 6 -19 7 -16 30 3 30 9 0 19 -9 22 -19 2 -10 13 -18 23
-18 11 0 19 -7 19 -16 0 -8 5 -12 10 -9 14 9 13 76 -1 73 -6 -2 -14 3 -16 10
-3 6 0 12 6 12 6 0 11 4 11 9 0 4 -11 6 -24 4 -16 -3 -25 1 -30 14 -6 14 -5
16 5 6 22 -22 28 -15 24 25 -3 30 -7 37 -23 35 -17 -2 -21 4 -24 29 -2 25 -9
34 -28 39 -14 4 -19 7 -11 8 8 1 3 9 -13 22 -14 11 -26 25 -26 30 0 12 37 12
60 -1 13 -7 21 -7 25 1 4 6 19 7 37 4 21 -5 33 -3 39 6 10 17 -8 39 -32 39
-10 0 -21 4 -24 10 -16 26 -115 -18 -115 -52 0 -6 -2 -9 -5 -6 -10 10 8 68 21
68 24 0 15 20 -12 31 -15 5 -29 7 -31 5 -9 -8 -9 -76 0 -79 4 -1 2 -17 -4 -36
-11 -32 -13 -33 -26 -16 -12 18 -13 17 -14 -6 -1 -16 -3 -18 -6 -7 -5 18 -50
31 -93 26 -22 -3 -25 1 -25 27 0 17 -4 30 -10 30 -5 0 -10 -7 -10 -15 0 -33
-31 -20 -49 21 -22 50 -9 74 25 43 20 -18 21 -18 31 -1 6 12 14 15 21 9 7 -5
27 -12 45 -15 35 -7 42 5 17 29 -8 9 -15 11 -15 5 0 -6 -7 -11 -15 -11 -8 0
-15 5 -15 10 0 6 -10 8 -24 4 -18 -4 -28 0 -38 15 -15 25 -28 27 -28 6 0 -18
-21 -20 -38 -3 -6 6 -36 13 -67 15 l-57 4 4 -37 c2 -22 -2 -39 -9 -41 -8 -3
-13 11 -15 39 -3 45 -21 59 -26 21 -4 -29 -18 -29 -33 -2 l-11 21 -24 -23
c-24 -22 -29 -18 -25 19 1 6 -5 12 -13 12 -9 0 -16 -11 -18 -27z m242 -95 c0
-25 -27 -23 -40 3 -9 15 -8 24 1 36 12 13 14 13 26 -3 7 -10 13 -26 13 -36z
m-248 -130 c-7 -7 -12 -8 -12 -2 0 6 3 14 7 17 3 4 9 5 12 2 2 -3 -1 -11 -7
-17z m58 -59 c0 -7 -30 -34 -31 -28 0 2 -2 21 -3 43 l-3 39 18 -24 c10 -13 19
-27 19 -30z m590 7 c0 -11 -19 -15 -25 -6 -3 5 1 10 9 10 9 0 16 -2 16 -4z
m10 -46 c0 -5 -2 -10 -4 -10 -3 0 -8 5 -11 10 -3 6 -1 10 4 10 6 0 11 -4 11
-10z m-160 -46 c0 -20 -13 -17 -27 5 -10 16 -9 18 8 14 10 -3 19 -12 19 -19z
m250 -44 c0 -5 -4 -10 -10 -10 -5 0 -10 5 -10 10 0 6 5 10 10 10 6 0 10 -4 10
-10z"/>
<path d="M2103 5143 c-13 -2 -23 -9 -23 -14 0 -5 -9 -9 -20 -9 -19 0 -20 -7
-20 -96 0 -93 11 -141 31 -129 5 4 9 1 9 -4 0 -6 9 -2 20 9 11 11 29 20 40 20
11 0 20 6 20 13 0 7 9 20 20 30 12 10 20 29 20 46 0 23 5 31 23 34 l22 4 -23
2 c-12 0 -25 8 -28 16 -4 8 -14 15 -24 15 -28 0 -33 17 -10 33 20 14 20 14 -6
25 -13 7 -26 11 -27 11 -1 -1 -12 -4 -24 -6z m56 -140 c-1 -53 -6 -49 -11 10
-2 20 0 37 4 37 4 0 8 -21 7 -47z"/>
<path d="M2960 5118 c0 -19 2 -20 10 -8 13 19 13 30 0 30 -5 0 -10 -10 -10
-22z"/>
<path d="M3041 5084 c0 -12 -9 -32 -19 -43 l-17 -22 -23 21 c-12 11 -22 16
-22 10 0 -5 -9 -10 -20 -10 -11 0 -20 -7 -20 -15 0 -8 5 -15 10 -15 6 0 10 5
10 11 0 5 4 8 9 5 5 -4 12 0 15 6 3 7 4 -8 2 -34 -2 -26 -1 -50 3 -53 3 -4 6
-12 6 -18 0 -7 10 -13 23 -15 12 -2 22 1 22 7 0 6 -7 11 -16 11 -26 0 -10 23
19 27 18 2 29 -2 33 -12 3 -8 12 -15 20 -15 8 0 14 -8 14 -19 0 -10 9 -21 21
-24 14 -4 17 -2 11 6 -6 7 -8 35 -5 62 3 28 6 60 6 72 2 27 11 21 38 -27 40
-70 50 -51 11 22 -20 39 -42 70 -47 70 -6 -1 -12 -18 -15 -39 l-5 -37 -12 27
c-7 15 -19 27 -27 27 -8 0 -17 8 -19 18 -4 13 -5 13 -6 -4z m29 -54 c0 -5 -4
-10 -10 -10 -5 0 -10 5 -10 10 0 6 5 10 10 10 6 0 10 -4 10 -10z"/>
<path d="M2650 5066 c0 -8 5 -18 10 -21 6 -3 10 1 10 9 0 8 -4 18 -10 21 -5 3
-10 -1 -10 -9z"/>
<path d="M4323 5055 c-13 -15 -28 -23 -37 -19 -20 8 -21 -15 -3 -40 13 -18 15
-17 34 10 19 27 39 74 31 74 -2 0 -13 -12 -25 -25z"/>
<path d="M4120 5055 c-11 -13 -11 -19 3 -32 15 -15 17 -15 22 0 4 9 3 23 -2
32 -9 15 -11 15 -23 0z"/>
<path d="M4180 5051 c-5 -11 -7 -22 -2 -25 12 -7 45 22 37 33 -10 17 -23 13
-35 -8z"/>
<path d="M3756 5042 c-3 -5 8 -6 25 -4 16 2 29 6 29 8 0 8 -49 4 -54 -4z"/>
<path d="M3436 5025 c-3 -9 -6 -29 -5 -43 1 -22 3 -19 10 12 10 40 6 60 -5 31z"/>
<path d="M2720 4992 c0 -5 11 -18 25 -30 14 -12 25 -26 25 -32 0 -5 7 -10 15
-10 8 0 15 7 15 15 0 13 9 15 53 10 40 -5 57 -2 72 10 20 16 20 16 -2 10 -15
-4 -23 -2 -23 6 0 10 -3 10 -12 1 -9 -9 -14 -7 -24 6 -11 14 -13 14 -14 2 0
-13 -1 -13 -10 0 -11 17 -30 20 -47 7 -7 -5 -20 -4 -32 2 -24 13 -41 14 -41 3z"/>
<path d="M3550 4974 c0 -8 5 -12 10 -9 6 3 10 10 10 16 0 5 -4 9 -10 9 -5 0
-10 -7 -10 -16z"/>
<path d="M3600 4949 c0 -5 5 -7 10 -4 6 3 10 8 10 11 0 2 -4 4 -10 4 -5 0 -10
-5 -10 -11z"/>
<path d="M3151 4924 c0 -11 3 -14 6 -6 3 7 2 16 -1 19 -3 4 -6 -2 -5 -13z"/>
<path d="M3220 4911 c0 -4 11 -25 25 -45 14 -20 25 -41 25 -46 0 -5 4 -11 9
-15 16 -9 -5 52 -29 85 -22 31 -30 37 -30 21z"/>
<path d="M3170 4864 c0 -8 5 -12 10 -9 6 4 8 11 5 16 -9 14 -15 11 -15 -7z"/>
<path d="M3225 4830 c3 -5 8 -10 11 -10 2 0 4 5 4 10 0 6 -5 10 -11 10 -5 0
-7 -4 -4 -10z"/>
<path d="M2528 4803 c6 -2 18 -2 25 0 6 3 1 5 -13 5 -14 0 -19 -2 -12 -5z"/>
<path d="M2940 4776 c0 -8 13 -19 29 -24 16 -6 32 -19 35 -30 6 -18 34 -37 42
-29 3 3 -54 64 -80 85 -20 16 -26 15 -26 -2z"/>
<path d="M2167 4764 c-3 -4 0 -19 9 -35 15 -29 47 -39 60 -18 4 7 39 10 93 9
127 -4 148 -2 154 14 4 10 1 13 -7 10 -8 -3 -41 2 -74 10 -59 16 -223 22 -235
10z"/>
<path d="M3034 4763 c10 -10 46 -11 40 -1 -3 4 -15 8 -26 8 -12 0 -18 -3 -14
-7z"/>
<path d="M2500 4736 c0 -9 5 -16 10 -16 6 0 10 4 10 9 0 6 -4 13 -10 16 -5 3
-10 -1 -10 -9z"/>
<path d="M2920 4684 c21 -25 50 -37 50 -21 0 8 -11 19 -25 25 -35 16 -40 15
-25 -4z"/>
<path d="M4259 4693 c-1 -5 0 -16 1 -27 2 -22 -18 -75 -38 -98 -10 -12 -23
-15 -43 -11 -24 5 -29 2 -29 -15 0 -11 -6 -25 -14 -31 -11 -9 -15 -5 -21 21
l-7 33 -9 -35 c-5 -19 -11 -42 -14 -50 -27 -89 -30 -120 -10 -120 8 0 15 7 15
15 0 8 5 15 10 15 6 0 10 6 10 14 0 7 9 16 20 19 11 3 20 12 20 21 0 21 64 38
68 18 4 -16 -15 -70 -33 -92 -22 -27 -25 -91 -7 -142 9 -26 20 -48 24 -48 5 0
8 -7 8 -15 0 -8 12 -21 28 -29 24 -14 24 -15 5 -13 -12 2 -26 6 -29 10 -11 10
-24 9 -24 -3 0 -5 5 -10 12 -10 7 0 22 -12 35 -27 19 -24 24 -26 33 -13 8 13
10 13 10 -2 0 -11 8 -18 20 -18 29 0 25 25 -7 39 -39 18 -15 30 42 21 76 -12
176 -5 212 14 62 31 73 75 40 160 -9 25 -8 30 14 46 17 14 26 15 31 7 5 -7 6
4 3 23 -4 27 -3 30 4 15 9 -19 10 -19 10 3 1 13 -5 22 -14 22 -8 0 -15 5 -15
10 0 6 5 10 10 10 6 0 10 5 10 10 0 6 -6 10 -14 10 -8 0 -16 7 -20 15 -3 8
-15 15 -26 15 -11 0 -20 6 -20 14 0 23 -73 66 -112 66 -20 0 -40 5 -43 10 -4
6 -18 2 -36 -11 -17 -12 -33 -18 -37 -14 -4 4 -1 10 7 13 9 3 2 10 -19 18 -32
14 -32 15 -15 34 17 19 17 21 -6 55 -23 33 -38 44 -40 28z m18 -129 c-3 -3
-12 -4 -19 -1 -8 3 -5 6 6 6 11 1 17 -2 13 -5z m-20 -50 c-30 -16 -44 -14 -32
5 3 6 18 11 33 11 l27 -1 -28 -15z m153 -154 c0 -5 -4 -10 -10 -10 -5 0 -10 5
-10 10 0 6 5 10 10 10 6 0 10 -4 10 -10z m-50 -31 c0 -5 -4 -9 -10 -9 -5 0
-10 7 -10 16 0 8 5 12 10 9 6 -3 10 -10 10 -16z m-143 -51 c-3 -8 -6 -5 -6 6
-1 11 2 17 5 13 3 -3 4 -12 1 -19z m353 -28 c0 -16 -4 -32 -10 -35 -6 -4 -10
10 -10 35 0 25 4 39 10 35 6 -3 10 -19 10 -35z"/>
<path d="M2525 4680 c-9 -15 -1 -23 21 -18 15 3 16 4 1 16 -11 9 -17 10 -22 2z"/>
<path d="M2984 4631 c7 -11 56 -21 56 -11 0 4 -10 10 -22 14 -32 8 -40 7 -34
-3z"/>
<path d="M2806 4611 c-11 -4 -15 -10 -9 -14 14 -9 84 4 77 14 -6 11 -41 11
-68 0z"/>
<path d="M2278 4593 c-21 -5 -23 -14 -5 -32 10 -11 5 -12 -25 -7 -43 8 -45 5
-21 -20 13 -13 14 -19 5 -22 -21 -7 -13 -32 11 -33 l22 0 -23 -10 c-13 -5 -20
-13 -17 -19 4 -7 12 -7 25 0 10 5 32 10 49 10 16 0 33 4 36 10 5 9 28 20 98
49 15 6 36 11 47 11 10 0 22 5 26 11 10 16 -17 29 -38 18 -13 -7 -21 -4 -34
16 -15 22 -22 25 -78 24 -33 -1 -69 -3 -78 -6z"/>
<path d="M4330 4590 c0 -5 5 -10 10 -10 6 0 10 5 10 10 0 6 -4 10 -10 10 -5 0
-10 -4 -10 -10z"/>
<path d="M2865 4580 c-3 -5 -1 -10 4 -10 6 0 11 5 11 10 0 6 -2 10 -4 10 -3 0
-8 -4 -11 -10z"/>
<path d="M2134 4503 c3 -10 10 -37 16 -60 9 -36 15 -43 35 -43 15 0 25 6 25
15 0 19 -21 65 -30 65 -4 0 -10 9 -13 20 -3 11 -13 20 -22 20 -11 0 -15 -6
-11 -17z"/>
<path d="M2809 4504 c18 -8 36 -13 39 -10 8 9 0 13 -38 19 l-35 6 34 -15z"/>
<path d="M3088 4503 c6 -2 18 -2 25 0 6 3 1 5 -13 5 -14 0 -19 -2 -12 -5z"/>
<path d="M3360 4501 c0 -5 -39 -12 -87 -14 -114 -6 -213 -27 -213 -44 0 -7 -8
-13 -18 -13 -10 0 -36 -9 -57 -20 -22 -11 -66 -23 -98 -27 -51 -5 -58 -9 -54
-25 4 -13 0 -18 -14 -18 -21 0 -26 -26 -6 -33 9 -3 9 -9 -1 -27 -16 -27 -8
-35 46 -45 19 -4 41 -13 49 -21 8 -8 23 -14 34 -14 10 0 19 -3 19 -8 0 -18 84
-92 128 -112 71 -34 271 -40 361 -11 36 11 68 18 73 15 4 -3 8 0 8 5 0 17 27
13 34 -4 3 -8 13 -15 23 -15 13 0 14 -3 5 -12 -17 -17 -15 -45 3 -52 8 -3 15
-14 15 -24 0 -26 11 -34 27 -21 10 9 18 8 32 -5 12 -11 27 -15 43 -11 17 4 29
0 42 -14 16 -18 16 -20 1 -28 -13 -8 -8 -12 24 -22 30 -9 39 -15 34 -27 -5
-13 -1 -15 13 -10 11 3 37 -3 59 -14 22 -11 48 -20 59 -20 24 0 84 -65 92
-100 4 -14 11 -31 17 -37 9 -12 3 -17 -15 -14 -5 0 -8 -13 -8 -30 0 -17 -4
-28 -10 -24 -5 3 -10 16 -10 29 0 12 -3 25 -6 28 -9 10 -44 -4 -44 -17 0 -9 8
-11 22 -7 18 4 20 2 13 -14 -5 -10 -9 -32 -9 -49 -1 -26 -5 -30 -28 -30 -31
-1 -43 -10 -43 -32 0 -9 -6 -18 -12 -20 -8 -3 -13 4 -13 18 l0 22 -24 -22
c-30 -28 -42 -12 -16 22 11 14 20 30 20 36 0 22 -25 10 -42 -19 -13 -22 -23
-29 -42 -28 -15 1 -26 6 -26 10 0 15 -48 8 -54 -8 -5 -14 -15 -15 -57 -10 -33
5 -56 3 -65 -5 -10 -8 -18 -9 -27 0 -8 6 -32 9 -55 7 -23 -2 -42 1 -42 6 0 5
-27 7 -62 3 -68 -6 -59 3 27 26 50 13 115 15 191 4 28 -4 46 -1 55 7 8 7 20
13 27 14 38 3 43 5 37 14 -10 17 -75 12 -75 -5 0 -8 -4 -15 -10 -15 -5 0 -35
7 -67 15 -65 17 -162 20 -128 4 15 -7 11 -8 -19 -5 -21 3 -46 1 -55 -3 -9 -5
-97 -11 -196 -14 -111 -3 -163 -2 -135 3 25 5 86 9 135 10 113 2 152 14 75 23
-30 4 -57 3 -60 -1 -3 -4 -30 -5 -60 -2 l-55 5 70 9 c39 5 102 8 140 7 51 -2
87 4 127 19 31 11 74 20 99 18 77 -3 128 14 129 45 0 4 -12 7 -26 7 -23 0 -25
-2 -13 -17 13 -15 8 -16 -54 -11 -37 3 -66 3 -62 0 3 -3 -27 -14 -67 -24 -64
-17 -97 -19 -268 -14 -107 3 -237 6 -288 6 -67 0 -91 3 -86 11 5 9 63 10 214
5 183 -6 208 -5 213 8 7 19 -4 21 -21 4 -8 -8 -12 -8 -12 -1 0 15 25 23 76 23
26 0 44 5 44 11 0 8 -13 9 -42 5 -24 -4 -97 -8 -163 -8 -99 0 -113 -1 -80 -9
22 -6 54 -8 71 -6 17 3 37 1 45 -5 9 -6 -20 -8 -90 -4 -56 3 -109 11 -117 17
-16 13 -154 5 -164 -10 -3 -4 -32 -9 -65 -10 -35 -1 -64 -7 -70 -14 -6 -9 -25
-12 -52 -9 -41 4 -43 3 -43 -22 0 -22 -3 -25 -27 -21 -16 3 -62 -1 -103 -9
-73 -13 -76 -13 -92 8 -15 17 -19 19 -27 7 -5 -8 -7 -20 -4 -28 4 -9 0 -11
-11 -7 -12 5 -19 0 -23 -15 -5 -21 -7 -21 -31 -5 -29 19 -93 15 -142 -10 -18
-9 -39 -16 -47 -16 -7 0 -13 -4 -13 -10 0 -5 -5 -10 -11 -10 -7 0 -17 -7 -24
-16 -10 -15 -13 -15 -27 0 -19 19 -41 20 -71 4 -33 -17 -72 -61 -58 -66 6 -2
11 -8 11 -13 0 -6 -4 -8 -9 -5 -5 3 -14 -1 -21 -9 -7 -8 -18 -15 -26 -15 -7 0
-20 -10 -29 -22 -15 -22 -17 -22 -26 -5 -8 14 -14 16 -25 6 -11 -9 -14 -8 -14
9 0 31 -11 52 -25 52 -22 0 -29 -22 -11 -32 9 -5 16 -17 16 -28 0 -11 11 -22
30 -29 17 -5 30 -14 30 -19 0 -18 110 -62 195 -78 22 -4 47 -8 55 -10 8 -1 33
-7 55 -13 44 -11 62 -3 67 32 2 12 11 23 22 25 12 3 16 0 11 -8 -4 -7 4 -4 19
5 22 15 31 15 56 5 16 -7 32 -22 36 -34 4 -11 11 -23 15 -27 5 -3 12 -27 16
-55 8 -65 50 -106 108 -108 41 -1 75 -24 75 -51 0 -8 4 -15 9 -15 5 0 11 7 15
15 8 23 28 18 21 -5 -7 -23 13 -28 21 -5 5 12 10 13 20 4 8 -6 14 -8 14 -3 0
5 5 2 11 -6 8 -11 9 -8 4 15 -3 17 -8 38 -12 49 -3 11 -1 16 5 12 6 -3 13 -20
17 -36 4 -17 10 -30 15 -30 4 0 13 -13 20 -30 12 -30 33 -39 45 -20 13 21 25
9 23 -22 -2 -26 2 -35 20 -43 12 -5 22 -13 22 -17 0 -4 24 -29 52 -55 29 -26
64 -60 77 -75 26 -29 81 -39 81 -15 0 8 4 7 10 -3 7 -11 10 -4 10 25 0 29 -3
36 -10 25 -8 -13 -10 -13 -10 1 0 9 -13 31 -30 49 -16 18 -30 34 -30 36 0 2
-15 18 -33 37 -39 38 -67 91 -66 121 0 17 2 16 11 -7 8 -23 12 -26 25 -16 12
10 16 10 23 -1 4 -7 6 -20 3 -29 -2 -9 3 -3 12 12 13 23 19 26 31 16 8 -6 14
-18 14 -25 0 -8 9 -14 19 -14 11 0 23 -5 26 -10 4 -6 11 -8 16 -5 5 4 9 1 9
-4 0 -6 6 -11 14 -11 7 0 21 -11 30 -25 9 -14 24 -25 34 -25 24 1 52 24 52 44
0 22 13 20 30 -4 8 -11 21 -20 29 -20 8 0 23 -8 34 -17 19 -18 20 -17 13 22
-4 25 -3 35 2 26 7 -10 11 -10 17 -1 4 6 13 9 21 6 17 -7 29 11 16 27 -5 7
-13 26 -16 42 -5 21 -16 35 -36 44 -18 7 -30 20 -30 31 0 10 -4 22 -10 25 -14
8 -13 35 3 68 15 33 22 34 32 5 7 -22 7 -22 12 -3 6 24 23 44 23 27 0 -7 5
-12 10 -12 6 0 10 20 10 45 0 25 5 45 11 45 6 0 8 8 6 18 -17 59 -18 92 -2 92
8 0 15 7 15 16 0 8 5 12 10 9 7 -4 7 -12 0 -25 -14 -26 -13 -30 9 -30 10 0 21
-7 25 -15 3 -8 13 -15 22 -15 14 0 15 -7 10 -43 -4 -24 -3 -53 1 -65 8 -20 10
-17 22 23 10 34 17 43 25 35 7 -5 23 -8 35 -5 30 6 50 -15 53 -54 1 -17 8 -31
15 -31 7 0 13 -4 13 -10 0 -5 8 -10 19 -10 10 0 24 -7 31 -15 7 -8 21 -15 31
-15 10 0 21 -4 24 -10 3 -5 16 -10 29 -10 12 0 26 -3 30 -7 4 -5 26 -13 49
-19 23 -6 41 -15 40 -20 -1 -6 22 -9 54 -8 31 1 63 -1 72 -6 9 -5 42 -14 74
-20 59 -12 80 -31 58 -53 -17 -17 -81 -14 -123 7 -21 10 -43 16 -50 13 -7 -2
4 -12 25 -22 44 -22 48 -35 8 -32 -16 1 -27 6 -23 11 3 5 -2 6 -12 3 -12 -5
-25 2 -42 22 -34 40 -184 109 -184 84 0 -5 16 -21 35 -36 19 -15 35 -34 35
-42 0 -8 8 -19 18 -24 9 -6 11 -11 5 -11 -7 0 -13 -7 -13 -15 0 -8 -9 -20 -20
-27 -11 -7 -20 -18 -20 -25 0 -7 -6 -13 -12 -13 -8 0 -14 16 -16 37 -1 21 -6
41 -10 45 -17 17 -84 -6 -127 -44 -64 -57 -80 -127 -51 -235 16 -60 73 -153
94 -153 8 0 12 -6 9 -14 -3 -8 2 -16 15 -19 14 -4 22 0 25 12 3 10 21 22 46
28 57 15 88 51 94 106 6 53 -17 111 -59 145 -34 29 -36 48 -4 56 14 3 32 14
42 23 11 11 33 17 65 17 51 0 72 -10 50 -23 -9 -6 -7 -10 8 -14 13 -3 21 -13
21 -25 0 -14 9 -22 30 -27 26 -6 28 -9 17 -26 -12 -19 -5 -30 25 -41 4 -2 8
-18 10 -36 2 -28 7 -34 30 -39 15 -3 28 -11 28 -17 0 -21 48 -128 60 -136 16
-10 5 -59 -16 -67 -12 -5 -12 -7 2 -18 15 -11 10 -17 -46 -54 -79 -51 -69 -53
17 -5 36 20 67 33 70 30 4 -3 1 -6 -5 -6 -7 0 -12 -5 -12 -11 0 -7 11 -8 32
-4 29 7 30 6 16 -8 -8 -9 -31 -20 -49 -25 -31 -9 -32 -10 -8 -11 24 -1 52 -31
29 -31 -6 0 -10 -4 -10 -9 0 -5 10 -7 23 -3 20 5 21 4 7 -13 -14 -17 -11 -18
70 -11 47 4 101 11 120 16 39 10 90 13 135 9 17 -1 -6 -6 -50 -10 -44 -5 -118
-15 -165 -23 l-85 -14 170 0 c184 0 324 -10 341 -23 6 -5 46 -8 90 -8 132 0
144 -1 216 -16 40 -9 83 -25 102 -40 18 -14 37 -25 42 -25 27 0 83 -131 84
-197 0 -52 -14 -71 -27 -35 -9 24 -69 82 -86 82 -8 0 -20 7 -27 15 -7 8 -25
15 -41 15 -15 0 -30 4 -33 9 -3 4 -17 6 -31 3 -14 -2 -31 1 -39 7 -10 8 -16 9
-21 1 -3 -5 -17 -7 -29 -4 -15 3 -29 -1 -40 -11 -9 -9 -16 -12 -16 -7 0 11
-119 10 -136 -1 -6 -3 -14 -4 -18 0 -9 10 -96 12 -96 3 0 -5 21 -16 48 -26 49
-19 94 -44 76 -44 -6 0 -39 12 -75 26 -100 40 -201 65 -216 53 -14 -13 -54 -2
-50 13 3 17 -48 27 -205 42 -182 17 -201 12 -50 -15 40 -7 76 -17 79 -22 4 -6
-4 -8 -18 -4 -13 3 -46 9 -74 12 -27 4 -58 9 -67 12 -10 2 -18 0 -18 -6 0 -6
8 -11 18 -11 9 0 24 -5 32 -11 11 -7 6 -8 -20 -4 -58 11 -25 -9 105 -64 66
-28 132 -58 147 -66 14 -8 37 -15 50 -15 30 1 190 0 203 0 6 -1 60 1 120 4
127 6 194 18 206 37 8 12 10 12 18 0 6 -10 13 -10 28 -2 11 6 38 8 59 5 22 -3
51 -6 67 -6 17 -1 27 -6 27 -16 0 -8 6 -12 15 -8 8 3 15 2 15 -2 0 -5 16 -16
35 -25 19 -9 35 -21 35 -27 0 -6 8 -20 19 -31 21 -23 33 -90 35 -192 1 -85 -8
-103 -23 -44 -6 25 -19 53 -28 63 -10 10 -23 27 -28 38 -6 12 -19 23 -30 25
-11 2 -25 11 -31 20 -13 17 -37 20 -126 21 -86 0 -98 -2 -98 -11 0 -5 -10 -9
-23 -9 -13 0 -28 -5 -35 -12 -7 -7 -12 -8 -12 -4 0 5 -6 3 -14 -3 -7 -6 -46
-12 -85 -13 -39 0 -74 -5 -77 -10 -3 -5 -12 -4 -20 3 -11 9 -18 9 -26 1 -9 -9
-15 -9 -25 0 -7 6 -38 11 -68 12 -36 0 -56 5 -60 14 -3 8 -12 11 -25 7 -12 -4
-27 -2 -33 4 -12 9 -47 8 -149 -3 -21 -3 -42 -7 -47 -10 -24 -15 -19 18 11 66
41 67 54 80 92 94 l31 12 -40 17 c-22 9 -53 22 -70 30 -60 27 -136 55 -150 55
-22 0 -18 -18 5 -25 11 -3 20 -10 20 -16 0 -5 -16 -1 -35 8 -19 9 -38 13 -42
8 -5 -4 -2 -10 5 -12 20 -8 14 -29 -14 -41 -17 -8 -31 -9 -44 -2 -10 5 -32 10
-49 10 -37 0 -62 9 -55 21 3 5 -2 12 -10 15 -22 8 -20 51 2 57 9 3 4 5 -13 6
l-30 1 3 78 c3 42 8 85 13 94 12 23 11 95 -1 103 -5 3 -10 15 -10 26 0 10 -4
19 -9 19 -5 0 -7 -9 -4 -21 6 -23 -21 -54 -62 -69 -34 -13 -105 -13 -105 0 0
6 -10 11 -22 11 -18 1 -19 2 -5 6 27 7 15 27 -18 31 -16 2 -35 11 -42 20 -11
14 -14 15 -22 3 -7 -11 -10 -9 -13 9 -4 31 -56 50 -72 28 -6 -8 -22 -18 -34
-22 -14 -5 -21 -13 -18 -21 6 -16 -19 -39 -33 -31 -5 3 -11 1 -13 -6 -2 -6
-10 4 -18 23 -17 41 -33 59 -54 59 -8 0 -17 8 -21 19 -7 23 -56 75 -79 84 -9
4 -16 11 -16 17 0 5 -5 10 -11 10 -6 0 -43 27 -82 61 -105 90 -131 104 -225
118 -46 7 -87 10 -90 7 -3 -3 5 -6 17 -6 32 0 17 -17 -21 -23 -51 -8 -105 -31
-101 -44 5 -13 -43 -53 -63 -53 -17 0 -18 -16 -3 -26 15 -9 -40 -64 -65 -64
-17 0 -18 -2 -6 -10 13 -9 13 -12 0 -23 -22 -18 -42 -56 -35 -67 4 -6 -1 -10
-9 -10 -9 0 -16 -4 -16 -10 0 -19 48 -10 62 12 13 20 16 20 46 7 18 -8 32 -19
32 -26 0 -18 86 -89 138 -113 57 -27 187 -38 249 -21 42 11 138 70 160 99 10
12 15 12 27 3 11 -10 16 -9 24 5 8 15 15 10 46 -32 19 -27 38 -63 42 -81 7
-35 48 -81 58 -64 4 6 20 8 36 4 22 -4 31 -1 36 10 4 12 14 15 35 10 18 -3 29
-1 29 6 0 6 5 11 10 11 6 0 10 -7 10 -15 0 -8 6 -15 14 -15 8 0 17 -9 21 -19
5 -16 22 -22 81 -32 68 -11 79 -16 115 -53 41 -44 49 -70 23 -80 -13 -5 -14
-9 -4 -21 6 -8 9 -19 5 -25 -3 -5 -1 -10 4 -10 6 0 11 -4 11 -9 0 -4 -11 -6
-25 -3 -22 4 -25 1 -25 -22 0 -14 -9 -35 -20 -46 -11 -11 -20 -25 -20 -31 0
-6 -7 -8 -16 -5 -10 4 -18 0 -21 -13 -3 -11 -13 -21 -24 -24 -11 -3 -19 -14
-19 -27 0 -17 -4 -20 -20 -15 -14 5 -20 2 -20 -9 0 -9 -7 -16 -15 -16 -8 0
-15 -4 -15 -8 0 -4 -14 -13 -31 -19 -18 -7 -33 -21 -36 -34 -6 -22 -7 -22 -14
-3 -4 10 -8 34 -8 53 -2 77 -11 16 -16 -104 -2 -70 -7 -130 -10 -133 -3 -3 -5
38 -5 91 0 86 -2 99 -23 123 -27 31 -42 27 -50 -13 -3 -16 -15 -55 -27 -88
-40 -114 -83 -406 -62 -427 8 -8 13 -7 17 4 5 13 14 14 46 7 53 -12 71 -9 86
16 7 12 12 15 13 6 0 -7 6 -11 15 -7 9 3 15 0 15 -9 0 -13 19 -16 155 -27 26
-3 29 -7 27 -28 -4 -22 -2 -23 14 -10 10 8 15 10 11 3 -12 -19 2 -40 26 -38
29 3 42 -5 26 -16 -12 -8 -11 -11 1 -19 13 -9 13 -11 0 -20 -11 -8 -1 -9 35
-4 l50 7 -19 -22 c-11 -11 -14 -21 -8 -21 7 0 12 -6 12 -14 0 -8 8 -17 18 -19
16 -4 16 -5 0 -6 -37 -2 -16 -21 25 -22 l42 -1 -40 -13 -40 -13 37 -1 c34 -1
68 -21 35 -21 -8 0 -20 -7 -28 -16 -7 -8 -21 -13 -31 -11 -10 3 -18 1 -18 -4
0 -5 12 -9 27 -9 26 0 26 -1 7 -16 -21 -17 -22 -17 31 -4 21 5 55 0 55 -9 0
-5 -6 -9 -12 -8 -33 1 -49 -4 -43 -13 3 -5 21 -10 39 -10 18 0 36 -3 39 -7 9
-9 -48 -33 -79 -33 -12 0 -26 -4 -29 -10 -3 -5 -21 -10 -38 -10 -18 0 -27 -4
-22 -8 6 -4 16 -18 22 -32 l11 -25 7 27 c8 32 52 45 100 28 27 -9 26 -10 -13
-5 -42 5 -42 5 -30 -17 7 -13 21 -29 31 -36 16 -13 37 -50 42 -77 1 -5 3 -12
4 -15 1 -3 4 -25 7 -50 2 -24 8 -46 13 -50 4 -3 8 -20 9 -38 0 -17 3 -40 7
-51 4 -13 0 -20 -14 -24 -11 -2 -21 -15 -23 -28 l-5 -24 -10 24 c-8 21 -10 22
-16 7 -4 -10 -5 -22 -1 -27 3 -5 -1 -12 -9 -15 -9 -3 -14 -16 -12 -30 1 -13
-4 -29 -11 -35 -8 -6 -14 -23 -14 -37 0 -14 -3 -22 -7 -19 -3 4 -12 2 -20 -4
-7 -6 -13 -8 -13 -3 -1 21 -20 -23 -20 -46 -1 -23 -2 -23 -20 10 l-18 35 1
-42 2 -43 358 0 357 0 0 40 c0 22 -4 40 -10 40 -18 0 -10 18 10 23 11 3 24 17
30 31 5 14 15 26 22 26 6 0 3 7 -8 16 -17 14 -17 15 -1 10 14 -4 22 3 33 29
10 24 21 35 35 35 13 0 23 8 26 21 4 16 11 19 29 15 16 -4 28 1 42 19 25 32
58 35 42 4 -11 -19 -9 -20 22 -17 25 2 34 8 36 26 2 12 12 26 22 32 15 8 18
20 16 60 -2 28 0 53 5 55 4 3 10 28 14 57 4 29 11 59 15 68 31 63 51 148 36
154 -7 3 -4 9 7 16 18 11 18 13 0 33 -10 12 -14 19 -9 15 15 -13 38 12 25 28
-7 9 -7 19 0 32 6 11 8 21 6 24 -2 2 0 35 6 73 7 52 7 70 -3 76 -7 4 -13 20
-14 36 -1 15 -3 30 -3 32 -1 2 -8 -2 -16 -9 -9 -7 -19 -10 -22 -6 -4 4 -1 11
6 15 8 5 9 11 3 15 -5 3 -7 17 -4 31 3 20 0 25 -16 25 -12 0 -24 5 -27 11 -4
6 -14 8 -23 4 -14 -5 -14 -3 1 13 23 25 22 29 -13 36 -22 4 -30 11 -28 23 2
12 -6 19 -26 23 -17 3 -29 9 -27 14 2 5 -5 13 -14 19 -12 6 -20 4 -30 -10 -8
-10 -17 -14 -22 -9 -4 5 -2 11 5 13 21 8 14 43 -9 43 -12 0 -23 8 -26 19 -3
11 -27 30 -54 42 -27 13 -49 27 -49 31 0 5 -6 8 -13 8 -18 0 -75 28 -82 41 -4
5 -15 9 -25 9 -10 0 -23 6 -27 13 -12 21 -141 40 -183 27 -19 -5 -47 -10 -61
-10 -15 0 -32 -7 -39 -15 -7 -8 -19 -15 -28 -15 -12 0 -12 4 4 21 26 29 84 57
146 70 28 6 58 18 66 25 27 27 169 15 207 -18 5 -4 32 -8 60 -8 27 -1 70 -5
95 -10 53 -10 71 0 52 30 -10 16 -10 20 2 20 15 0 29 -27 21 -40 -16 -25 98
-39 146 -18 16 7 29 16 29 20 0 5 10 8 23 8 12 0 34 7 49 14 18 10 45 13 75
10 27 -2 60 -5 75 -6 15 0 29 -7 32 -14 3 -8 15 -14 26 -14 11 0 20 -6 20 -12
0 -7 11 -26 25 -42 42 -48 49 -133 19 -226 -9 -30 -16 -73 -16 -95 3 -91 3
-192 -2 -230 -2 -22 -4 -51 -5 -65 -1 -17 -4 -21 -11 -14 -6 6 -11 59 -11 122
0 62 -4 112 -9 112 -5 0 -7 36 -6 80 l3 80 -36 -6 c-35 -5 -35 -5 -11 8 34 18
40 63 9 71 -13 4 -20 11 -16 20 5 13 -30 43 -40 33 -3 -2 -16 6 -29 19 -13 13
-31 22 -38 19 -8 -3 -23 -1 -33 4 -12 7 -37 7 -70 1 -30 -6 -80 -6 -122 -1
-39 5 -71 7 -71 5 0 -12 79 -37 152 -47 9 -1 23 -8 31 -15 10 -8 17 -9 22 -1
3 5 13 10 22 10 12 0 13 -3 3 -15 -10 -12 -5 -17 27 -32 21 -10 42 -28 48 -40
7 -16 15 -21 28 -17 15 5 17 1 11 -20 -4 -17 -2 -26 6 -26 7 0 10 -7 6 -15 -9
-23 12 -68 29 -62 9 4 12 1 8 -9 -3 -7 -9 -14 -14 -14 -13 0 -11 -28 2 -32 7
-2 6 -13 -2 -33 -7 -17 -11 -34 -10 -38 3 -16 -20 -131 -36 -177 -22 -64 -46
-178 -45 -210 8 -137 12 -182 21 -199 6 -11 11 -30 11 -43 1 -55 8 -92 17 -95
8 -3 7 -19 -2 -51 -7 -26 -14 -54 -16 -62 -3 -11 3 -14 20 -12 18 2 22 -2 17
-14 -6 -14 0 -16 36 -11 29 4 37 3 23 -3 -11 -5 -30 -9 -42 -9 -12 -1 -25 -6
-29 -12 -4 -7 7 -10 34 -8 50 4 65 -7 23 -16 -40 -8 -40 -25 -1 -25 18 0 29
-5 27 -12 -1 -6 9 -15 23 -19 23 -6 23 -7 3 -8 -28 -1 -41 -21 -14 -21 30 0
50 -10 45 -23 -2 -7 0 -19 6 -27 8 -13 80 -15 531 -18 417 -2 524 0 531 10 6
10 8 10 8 1 0 -10 30 -13 115 -13 l115 0 0 1690 0 1690 -40 0 c-22 0 -40 4
-40 10 0 13 -33 0 -43 -17 -9 -15 -37 -18 -37 -3 0 18 -39 31 -60 20 -14 -8
-20 -8 -20 0 0 6 7 13 15 16 8 4 15 12 15 20 0 8 5 14 10 14 6 0 10 -6 10 -14
0 -21 30 -29 31 -8 3 46 -5 59 -25 43 -18 -15 -52 -6 -60 14 -3 8 -12 15 -20
15 -13 0 -23 -31 -29 -90 -2 -21 -7 -25 -29 -22 -22 2 -26 -1 -21 -14 4 -12 2
-15 -8 -12 -8 3 -13 10 -12 16 2 6 -6 14 -17 17 -33 11 -22 24 23 27 40 4 41
4 17 14 -38 17 -94 -5 -98 -39 -3 -20 2 -26 20 -30 14 -3 7 -5 -17 -6 -33 -1
-42 3 -51 22 -11 25 2 47 30 47 20 0 28 27 10 34 -9 3 -28 6 -42 6 -40 0 -59
15 -43 33 16 21 3 27 -50 22 -67 -6 -109 -16 -109 -27 0 -6 12 -8 29 -5 16 3
31 4 34 0 10 -9 -17 -30 -33 -26 -8 2 -26 0 -40 -6 -14 -5 -19 -10 -12 -10 10
-1 10 -4 -1 -16 -12 -11 -33 -14 -89 -11 -40 2 -75 5 -78 6 -3 1 -8 2 -12 1
-4 0 -19 6 -35 14 -28 15 -28 15 17 9 58 -7 151 -7 158 1 4 3 1 15 -6 25 -11
17 -10 20 8 20 12 0 20 7 20 16 0 10 -6 14 -15 10 -8 -3 -15 -1 -15 4 0 6 -9
10 -21 10 -11 0 -18 -4 -15 -9 3 -4 -5 -6 -18 -4 -13 3 -27 0 -30 -6 -8 -12
30 -35 44 -26 5 3 7 -1 4 -9 -5 -12 -16 -14 -52 -9 -50 6 -65 13 -44 20 22 8
12 18 -18 17 -16 -1 -32 -2 -35 -4 -3 -1 -24 -2 -47 -2 -24 0 -47 -3 -51 -5
-14 -9 58 -63 83 -63 6 0 28 -11 48 -25 20 -14 45 -25 56 -25 10 0 28 -11 40
-24 21 -23 63 -49 100 -60 15 -5 16 -9 6 -21 -15 -18 -34 -20 -24 -3 5 8 2 9
-9 5 -11 -4 -20 1 -27 13 -6 11 -17 20 -25 20 -8 0 -19 8 -24 19 -6 10 -23 22
-38 26 -15 3 -38 14 -52 24 -39 27 -177 91 -196 91 -11 0 -15 -5 -12 -14 4
-10 0 -12 -15 -8 -27 7 -50 -23 -42 -55 4 -16 1 -25 -10 -29 -10 -4 -16 -18
-16 -39 0 -19 -4 -37 -10 -40 -5 -3 -10 -18 -11 -33 0 -24 -1 -25 -9 -7 -5 11
-9 14 -9 7 -1 -7 -14 -18 -31 -23 -20 -7 -30 -18 -30 -31 0 -33 -19 -58 -45
-58 -14 0 -25 -4 -25 -10 0 -5 -10 -11 -22 -11 -17 -1 -19 -2 -5 -6 21 -6 22
-19 2 -27 -8 -3 -15 -15 -15 -26 0 -15 -8 -22 -29 -26 -27 -6 -29 -9 -24 -40
4 -22 2 -34 -6 -34 -6 0 -11 -7 -11 -15 0 -18 -20 -20 -20 -2 -1 7 -6 5 -14
-5 -7 -10 -18 -18 -24 -18 -6 0 -12 -5 -14 -10 -2 -6 -24 -11 -50 -12 -42 -2
-47 -5 -43 -23 7 -29 -10 -54 -27 -37 -6 6 -20 12 -30 12 -10 0 -21 7 -24 15
-4 8 -17 15 -30 15 -15 0 -24 -6 -24 -15 0 -19 -14 -19 -34 1 -9 9 -16 32 -16
55 0 24 -4 38 -10 34 -5 -3 -10 -19 -10 -36 0 -16 -4 -29 -10 -29 -5 0 -10 10
-10 23 0 13 -3 27 -7 30 -10 10 -33 -13 -33 -34 0 -11 -5 -16 -12 -14 -18 7
-47 -47 -41 -76 2 -13 -1 -35 -7 -49 l-10 -25 4 25 c2 14 0 34 -4 45 -5 11 -9
16 -9 10 -1 -5 -5 -4 -10 4 -15 24 -41 5 -41 -31 -1 -30 -2 -32 -15 -15 -7 11
-11 25 -9 32 7 17 -34 26 -57 12 -14 -9 -21 -9 -31 1 -11 11 -10 15 5 23 9 6
17 21 17 33 0 13 7 26 15 30 8 3 15 13 15 22 0 10 2 15 5 12 10 -10 63 48 67
73 2 19 8 23 27 21 13 -1 30 3 37 9 11 9 18 8 31 -2 15 -13 16 -11 10 21 -10
58 7 121 43 153 17 15 35 25 39 22 5 -2 12 11 15 30 4 19 11 35 16 35 19 0 10
41 -15 68 -14 15 -23 32 -21 39 3 7 1 15 -4 18 -6 4 -10 16 -11 28 -1 20 -2
19 -12 -5 -10 -27 -42 -38 -49 -19 -1 5 -22 1 -45 -10 -37 -17 -44 -17 -70 -4
-25 13 -26 15 -6 15 32 0 37 17 7 24 -15 4 -27 6 -28 4 -1 -2 -8 -14 -14 -28
-7 -14 -10 -17 -8 -8 3 10 1 20 -5 24 -5 3 -9 15 -7 27 2 16 -3 23 -19 25 -12
2 -27 10 -33 18 -7 8 -19 14 -26 14 -8 0 -14 6 -14 14 0 8 -5 18 -11 22 -8 5
-10 -4 -7 -30 5 -45 1 -45 -18 -1 -8 19 -19 35 -24 35 -6 0 -10 5 -10 10 0 6
7 10 15 10 8 0 15 -4 15 -10 0 -5 7 -7 16 -3 14 5 13 9 -10 25 -14 11 -26 28
-26 38 0 10 -5 22 -10 25 -17 11 4 117 26 136 8 6 14 17 14 23 0 6 18 22 40
35 44 27 59 51 32 51 -15 0 -15 2 -2 10 13 8 13 10 -1 10 -18 0 -29 38 -29 98
0 21 -7 41 -19 51 -18 16 -37 58 -33 74 1 5 -2 6 -8 2 -5 -3 -22 8 -37 25 -26
29 -31 31 -55 20 -29 -14 -63 -7 -53 11 4 6 17 14 28 18 20 8 20 9 -10 25 -18
9 -41 16 -53 16 -13 0 -24 9 -30 26 -8 20 -14 24 -33 18 -34 -10 -51 -44 -22
-44 8 0 15 -7 15 -15 0 -9 -9 -15 -21 -15 -18 0 -20 -4 -14 -30 5 -23 3 -30
-9 -30 -9 0 -16 -5 -16 -10 0 -7 -7 -7 -21 0 -26 15 -69 5 -69 -16 0 -8 -4
-13 -9 -9 -5 3 -12 -3 -16 -14 -3 -10 -14 -26 -24 -35 -11 -10 -17 -25 -14
-37 3 -10 0 -19 -6 -19 -6 0 -11 13 -11 29 0 17 -4 33 -10 36 -5 3 -10 15 -10
26 0 10 -4 19 -10 19 -5 0 -10 -7 -10 -16 0 -29 -29 5 -36 42 -3 18 -12 38
-20 45 -8 6 -14 17 -14 24 0 6 -11 25 -25 41 -14 16 -25 36 -25 44 0 8 -12 26
-25 39 -14 13 -25 31 -25 41 0 10 -7 23 -15 30 -12 10 -13 16 -4 27 7 7 9 16
6 20 -4 3 -9 -2 -13 -11 -9 -22 -31 -20 -37 4 -5 20 -47 29 -47 11z m-50 -221
c0 -5 -5 -10 -11 -10 -5 0 -7 5 -4 10 3 6 8 10 11 10 2 0 4 -4 4 -10z m-45
-30 c3 -5 -1 -10 -9 -10 -9 0 -16 5 -16 10 0 6 4 10 9 10 6 0 13 -4 16 -10z
m-175 -131 c0 -6 -4 -7 -10 -4 -5 3 -10 11 -10 16 0 6 5 7 10 4 6 -3 10 -11
10 -16z m938 -22 c2 -10 -3 -17 -12 -17 -10 0 -16 9 -16 21 0 24 23 21 28 -4z
m76 -14 c9 4 16 2 16 -3 0 -5 -10 -11 -22 -13 -20 -4 -19 -4 5 -6 15 0 27 -5
27 -9 0 -5 -36 -9 -80 -9 -60 -1 -80 2 -80 12 0 18 20 23 54 14 34 -10 46 -5
46 19 0 14 2 14 9 3 5 -8 16 -11 25 -8z m-434 -13 c0 -5 -5 -10 -11 -10 -5 0
-7 5 -4 10 3 6 8 10 11 10 2 0 4 -4 4 -10z m20 -61 c0 -5 -4 -9 -10 -9 -5 0
-10 7 -10 16 0 8 5 12 10 9 6 -3 10 -10 10 -16z m90 -39 c0 -5 -10 -10 -22
-10 -19 0 -20 2 -8 10 19 13 30 13 30 0z m-57 -7 c-7 -2 -19 -2 -25 0 -7 3 -2
5 12 5 14 0 19 -2 13 -5z m-818 -273 c4 -6 -17 -9 -57 -9 -58 2 -60 2 -23 9
61 11 73 11 80 0z m-145 -30 c8 -5 11 -10 5 -11 -53 -5 -105 -7 -105 -4 0 5
57 23 75 24 6 0 17 -4 25 -9z m293 -37 c-7 -2 -19 -2 -25 0 -7 3 -2 5 12 5 14
0 19 -2 13 -5z m712 -133 c3 -6 -1 -7 -9 -4 -18 7 -21 14 -7 14 6 0 13 -4 16
-10z m55 -10 c0 -5 -9 -10 -21 -10 -11 0 -17 5 -14 10 3 6 13 10 21 10 8 0 14
-4 14 -10z m1610 0 c0 -5 -8 -10 -17 -10 -15 0 -16 2 -3 10 19 12 20 12 20 0z
m55 0 c3 -5 -3 -10 -14 -10 -12 0 -21 5 -21 10 0 6 6 10 14 10 8 0 18 -4 21
-10z m-1865 -4 c0 -9 -30 -14 -35 -6 -4 6 3 10 14 10 12 0 21 -2 21 -4z m2140
-92 c0 -8 -5 -12 -10 -9 -6 4 -8 11 -5 16 9 14 15 11 15 -7z m-1843 -19 c-5
-11 -19 -14 -49 -13 l-43 1 43 4 c30 3 42 9 42 20 0 9 3 14 6 10 4 -3 4 -13 1
-22z m33 21 c0 -3 -4 -8 -10 -11 -5 -3 -10 -1 -10 4 0 6 5 11 10 11 6 0 10 -2
10 -4z m48 -12 c12 -21 89 -24 104 -3 7 10 8 1 4 -28 -6 -40 6 -60 17 -30 9
23 19 -43 11 -70 l-8 -28 -5 35 -6 35 -14 -43 c-17 -50 -31 -39 -31 26 0 31
-4 42 -15 42 -9 0 -15 -10 -15 -26 0 -14 -4 -23 -10 -19 -5 3 -10 17 -10 31 0
24 -20 35 -20 12 -1 -22 -29 36 -30 60 0 26 15 29 28 6z m62 6 c0 -5 -7 -10
-16 -10 -8 0 -12 5 -9 10 3 6 10 10 16 10 5 0 9 -4 9 -10z m2140 -56 c0 -12
-7 -14 -32 -9 -18 4 -36 9 -40 12 -12 6 -10 27 4 41 14 14 68 -21 68 -44z
m148 -2 c2 -7 -3 -12 -12 -12 -9 0 -16 7 -16 16 0 17 22 14 28 -4z m-2408 -17
c0 -8 -4 -15 -10 -15 -5 0 -10 -6 -10 -13 0 -22 -41 -59 -60 -54 -12 3 -20 -2
-23 -14 -3 -11 -12 -19 -21 -19 -9 0 -13 6 -10 14 3 8 -3 19 -16 26 -14 8 -19
17 -15 30 3 10 1 21 -5 25 -21 13 -9 25 25 25 24 0 35 -5 35 -15 0 -8 9 -19
19 -24 15 -9 25 -5 47 18 34 33 44 37 44 16z m2154 9 c14 -5 12 -34 -3 -34
-16 1 -33 19 -27 29 8 13 9 13 30 5z m186 -14 c0 -11 -4 -20 -10 -20 -5 0 -10
9 -10 20 0 11 5 20 10 20 6 0 10 -9 10 -20z m-2575 -10 c3 -5 -1 -10 -9 -10
-9 0 -16 5 -16 10 0 6 4 10 9 10 6 0 13 -4 16 -10z m2045 1 c0 -5 -7 -11 -15
-15 -9 -3 -15 0 -15 9 0 8 7 15 15 15 8 0 15 -4 15 -9z m-2123 -7 c-3 -3 -12
-4 -19 -1 -8 3 -5 6 6 6 11 1 17 -2 13 -5z m-397 -8 c0 -3 -4 -8 -10 -11 -5
-3 -10 -1 -10 4 0 6 5 11 10 11 6 0 10 -2 10 -4z m397 -12 c-3 -3 -12 -4 -19
-1 -8 3 -5 6 6 6 11 1 17 -2 13 -5z m2155 -6 c-9 -9 -15 -9 -24 0 -9 9 -7 12
12 12 19 0 21 -3 12 -12z m426 2 c17 0 32 -4 32 -10 0 -6 -29 -10 -66 -10 -59
0 -65 2 -53 16 7 9 21 13 33 10 12 -3 36 -6 54 -6z m-493 -10 c3 -5 -1 -10
-10 -10 -9 0 -13 5 -10 10 3 6 8 10 10 10 2 0 7 -4 10 -10z m-1727 -17 c-2
-13 -13 -18 -36 -18 -38 0 -40 6 -9 21 34 17 49 16 45 -3z m1766 -19 c4 -9 4
-19 2 -21 -8 -8 -26 8 -26 23 0 19 16 18 24 -2z m-2070 -10 c3 -8 2 -12 -4 -9
-6 3 -10 10 -10 16 0 14 7 11 14 -7z m2386 -14 c0 -5 -4 -10 -10 -10 -17 0
-11 -18 8 -23 9 -3 1 -5 -17 -6 -26 -1 -32 2 -24 10 6 6 9 18 6 25 -3 9 2 14
16 14 12 0 21 -4 21 -10z m-2120 -4 c0 -3 -4 -8 -10 -11 -5 -3 -10 -1 -10 4 0
6 5 11 10 11 6 0 10 -2 10 -4z m1936 -23 c-10 -10 -19 5 -10 18 6 11 8 11 12
0 2 -7 1 -15 -2 -18z m499 17 c3 -5 -1 -10 -10 -10 -9 0 -13 5 -10 10 3 6 8
10 10 10 2 0 7 -4 10 -10z m-545 -20 c0 -5 -4 -10 -10 -10 -5 0 -10 5 -10 10
0 6 5 10 10 10 6 0 10 -4 10 -10z m365 -20 c-3 -5 -11 -10 -16 -10 -6 0 -7 5
-4 10 3 6 11 10 16 10 6 0 7 -4 4 -10z m-755 -16 c0 -2 -9 -4 -20 -4 -11 0
-20 4 -20 9 0 5 9 7 20 4 11 -3 20 -7 20 -9z m841 6 c10 -6 19 -17 19 -25 0
-23 -16 -18 -34 10 -18 27 -15 30 15 15z m-417 -15 c-4 -8 -10 -12 -15 -9 -11
6 -2 24 11 24 5 0 7 -7 4 -15z m226 -15 c0 -5 -4 -10 -10 -10 -5 0 -10 5 -10
10 0 6 5 10 10 10 6 0 10 -4 10 -10z m100 0 c0 -5 -9 -10 -20 -10 -11 0 -20 5
-20 10 0 6 9 10 20 10 11 0 20 -4 20 -10z m-690 -21 c0 -5 -4 -9 -10 -9 -5 0
-10 7 -10 16 0 8 5 12 10 9 6 -3 10 -10 10 -16z m30 -9 c0 -5 -4 -10 -10 -10
-5 0 -10 5 -10 10 0 6 5 10 10 10 6 0 10 -4 10 -10z m370 0 c0 -5 -2 -10 -4
-10 -3 0 -8 5 -11 10 -3 6 -1 10 4 10 6 0 11 -4 11 -10z m194 -16 c4 -10 1
-14 -6 -12 -15 5 -23 28 -10 28 5 0 13 -7 16 -16z m81 6 c-4 -6 -10 -8 -15 -5
-4 3 -11 -2 -14 -11 -3 -8 -10 -13 -15 -9 -18 10 1 35 26 35 14 0 22 -4 18
-10z m-562 -34 c6 -14 -1 -26 -14 -26 -4 0 -7 9 -6 20 1 23 12 26 20 6z m368
-9 c-6 -8 -8 -17 -4 -20 3 -4 1 -7 -5 -7 -6 0 -10 9 -9 20 1 11 8 20 15 20 11
0 12 -3 3 -13z m253 7 c9 -3 16 -11 16 -16 0 -6 -7 -8 -15 -4 -8 3 -14 1 -12
-3 1 -5 -2 -11 -7 -12 -5 -2 -10 6 -11 19 -2 23 3 26 29 16z m-3594 -52 c0
-12 -3 -12 -15 -2 -8 7 -15 22 -15 34 1 21 1 21 15 2 8 -11 15 -26 15 -34z
m3300 32 c0 -8 -4 -12 -10 -9 -5 3 -10 10 -10 16 0 5 5 9 10 9 6 0 10 -7 10
-16z m260 -54 c13 -11 20 -23 17 -27 -8 -7 -47 25 -47 39 0 12 4 10 30 -12z
m-370 -30 c0 -5 -4 -10 -10 -10 -5 0 -10 5 -10 10 0 6 5 10 10 10 6 0 10 -4
10 -10z m190 0 c0 -5 -5 -10 -11 -10 -5 0 -7 5 -4 10 3 6 8 10 11 10 2 0 4 -4
4 -10z m-1070 -40 c0 -5 -2 -10 -4 -10 -3 0 -8 5 -11 10 -3 6 -1 10 4 10 6 0
11 -4 11 -10z m1110 -10 c0 -5 -2 -10 -4 -10 -3 0 -8 5 -11 10 -3 6 -1 10 4
10 6 0 11 -4 11 -10z m320 -22 c0 -5 -4 -8 -10 -8 -5 0 -10 10 -10 23 0 18 2
19 10 7 5 -8 10 -18 10 -22z m-1823 -10 c-3 -8 -6 -5 -6 6 -1 11 2 17 5 13 3
-3 4 -12 1 -19z m1593 12 c0 -5 -4 -10 -9 -10 -6 0 -13 5 -16 10 -3 6 1 10 9
10 9 0 16 -4 16 -10z m-1693 -47 c-3 -10 -5 -4 -5 12 0 17 2 24 5 18 2 -7 2
-21 0 -30z m533 -9 c0 -8 -4 -12 -10 -9 -5 3 -10 13 -10 21 0 8 5 12 10 9 6
-3 10 -13 10 -21z m-413 -36 c-2 -13 -4 -5 -4 17 -1 22 1 32 4 23 2 -10 2 -28
0 -40z m1173 22 c0 -5 -4 -10 -10 -10 -5 0 -10 5 -10 10 0 6 5 10 10 10 6 0
10 -4 10 -10z m300 -20 c0 -5 -2 -10 -4 -10 -3 0 -8 5 -11 10 -3 6 -1 10 4 10
6 0 11 -4 11 -10z m180 0 c0 -5 -4 -10 -10 -10 -5 0 -10 5 -10 10 0 6 5 10 10
10 6 0 10 -4 10 -10z m-1884 -37 c-10 -10 -19 5 -10 18 6 11 8 11 12 0 2 -7 1
-15 -2 -18z m1674 -13 c0 -5 -4 -10 -9 -10 -6 0 -13 5 -16 10 -3 6 1 10 9 10
9 0 16 -4 16 -10z m250 -30 c0 -5 -2 -10 -4 -10 -3 0 -8 5 -11 10 -3 6 -1 10
4 10 6 0 11 -4 11 -10z m-1181 -48 c17 -6 31 -13 31 -16 0 -3 -7 -3 -16 1 -9
3 -20 0 -25 -8 -7 -11 -10 -9 -15 9 -4 13 -12 21 -19 18 -8 -3 -10 4 -7 22 5
24 6 25 13 5 4 -11 21 -25 38 -31z m-503 -17 c2 -5 6 -20 10 -32 4 -14 2 -23
-5 -23 -6 0 -11 11 -11 23 0 13 -3 27 -7 31 -4 4 -8 19 -10 34 l-2 27 11 -25
c6 -14 12 -29 14 -35z m-41 5 c-3 -5 -12 -10 -18 -10 -7 0 -6 4 3 10 19 12 23
12 15 0z m-55 -14 c0 -3 -4 -8 -10 -11 -5 -3 -10 -1 -10 4 0 6 5 11 10 11 6 0
10 -2 10 -4z m653 -23 c-7 -2 -19 -2 -25 0 -7 3 -2 5 12 5 14 0 19 -2 13 -5z
m957 -23 c0 -5 -4 -10 -10 -10 -5 0 -10 5 -10 10 0 6 5 10 10 10 6 0 10 -4 10
-10z m-1795 -19 c3 -5 1 -12 -5 -16 -5 -3 -10 1 -10 9 0 18 6 21 15 7z m819 2
c-5 -5 -12 -12 -16 -18 -4 -6 -8 -2 -8 8 0 9 7 17 17 17 9 0 12 -3 7 -7z
m-127 -35 c-3 -8 -6 -5 -6 6 -1 11 2 17 5 13 3 -3 4 -12 1 -19z m213 3 c0 -4
-13 -6 -30 -3 -16 2 -30 7 -30 11 0 4 14 6 30 3 17 -2 30 -7 30 -11z m-530 5
c0 -2 -13 -6 -29 -8 -17 -2 -28 -1 -25 4 5 8 54 12 54 4z m-173 -42 c-3 -3
-12 -4 -19 -1 -8 3 -5 6 6 6 11 1 17 -2 13 -5z m-188 -54 c0 -23 -1 -23 -9 -5
-5 11 -9 29 -9 40 -1 17 1 17 9 5 5 -8 9 -26 9 -40z m134 43 c-7 -2 -19 -2
-25 0 -7 3 -2 5 12 5 14 0 19 -2 13 -5z m437 3 c0 -3 -4 -8 -10 -11 -5 -3 -10
-1 -10 4 0 6 5 11 10 11 6 0 10 -2 10 -4z m60 0 c0 -3 -4 -8 -10 -11 -5 -3
-10 -1 -10 4 0 6 5 11 10 11 6 0 10 -2 10 -4z m120 -6 c12 -8 11 -10 -7 -10
-13 0 -23 5 -23 10 0 13 11 13 30 0z m-720 -10 c0 -5 -4 -10 -10 -10 -5 0 -10
5 -10 10 0 6 5 10 10 10 6 0 10 -4 10 -10z m757 -22 c-3 -7 -5 -2 -5 12 0 14
2 19 5 13 2 -7 2 -19 0 -25z m1163 12 c0 -5 -4 -10 -10 -10 -5 0 -10 5 -10 10
0 6 5 10 10 10 6 0 10 -4 10 -10z m-3555 -20 c3 -5 1 -10 -4 -10 -6 0 -11 5
-11 10 0 6 2 10 4 10 3 0 8 -4 11 -10z m3560 -10 c3 -5 -1 -10 -10 -10 -9 0
-13 5 -10 10 3 6 8 10 10 10 2 0 7 -4 10 -10z m90 0 c3 -5 1 -10 -4 -10 -6 0
-11 5 -11 10 0 6 2 10 4 10 3 0 8 -4 11 -10z m-1688 -42 c-3 -7 -5 -2 -5 12 0
14 2 19 5 13 2 -7 2 -19 0 -25z m1547 17 c-4 -8 -8 -15 -10 -15 -2 0 -4 7 -4
15 0 8 4 15 10 15 5 0 7 -7 4 -15z m-1881 -25 c3 -11 1 -18 -4 -14 -5 3 -9 12
-9 20 0 20 7 17 13 -6z m1207 16 c0 -3 -4 -8 -10 -11 -5 -3 -10 -1 -10 4 0 6
5 11 10 11 6 0 10 -2 10 -4z m-400 -32 c0 -8 -4 -12 -10 -9 -5 3 -10 10 -10
16 0 5 5 9 10 9 6 0 10 -7 10 -16z m-765 -24 c-3 -5 -12 -10 -18 -10 -7 0 -6
4 3 10 19 12 23 12 15 0z m515 -26 c0 -35 -17 -30 -18 6 0 17 4 28 9 25 5 -4
9 -17 9 -31z m1360 16 c0 -5 -2 -10 -4 -10 -3 0 -8 5 -11 10 -3 6 -1 10 4 10
6 0 11 -4 11 -10z m-335 -10 c3 -5 1 -10 -4 -10 -6 0 -11 5 -11 10 0 6 2 10 4
10 3 0 8 -4 11 -10z m322 -32 c-3 -8 -6 -5 -6 6 -1 11 2 17 5 13 3 -3 4 -12 1
-19z m-1700 6 c-3 -3 -12 -4 -19 -1 -8 3 -5 6 6 6 11 1 17 -2 13 -5z m53 -4
c0 -5 -6 -10 -14 -10 -8 0 -18 5 -21 10 -3 6 3 10 14 10 12 0 21 -4 21 -10z
m120 -20 c10 -7 -1 -8 -35 -4 -27 4 -52 8 -54 10 -10 9 75 3 89 -6z m-372 -7
c-10 -2 -28 -2 -40 0 -13 2 -5 4 17 4 22 1 32 -1 23 -4z m1472 -13 c0 -5 -7
-7 -15 -4 -8 4 -15 8 -15 10 0 2 7 4 15 4 8 0 15 -4 15 -10z m-950 -10 c0 -5
-4 -10 -10 -10 -5 0 -10 5 -10 10 0 6 5 10 10 10 6 0 10 -4 10 -10z m1235 0
c3 -5 1 -10 -4 -10 -6 0 -11 5 -11 10 0 6 2 10 4 10 3 0 8 -4 11 -10z m-1098
-26 c-3 -3 -12 -4 -19 -1 -8 3 -5 6 6 6 11 1 17 -2 13 -5z m1340 0 c-3 -3 -12
-4 -19 -1 -8 3 -5 6 6 6 11 1 17 -2 13 -5z m-57 -44 c0 -5 -5 -10 -11 -10 -5
0 -7 5 -4 10 3 6 8 10 11 10 2 0 4 -4 4 -10z m-2855 -10 c-3 -5 -11 -10 -16
-10 -6 0 -7 5 -4 10 3 6 11 10 16 10 6 0 7 -4 4 -10z m2945 -26 c0 -8 -5 -12
-10 -9 -6 4 -8 11 -5 16 9 14 15 11 15 -7z m-56 -10 c3 -8 2 -12 -4 -9 -6 3
-10 10 -10 16 0 14 7 11 14 -7z m-2127 -90 c-3 -3 -12 -4 -19 -1 -8 3 -5 6 6
6 11 1 17 -2 13 -5z m106 -21 c-7 -2 -21 -2 -30 0 -10 3 -4 5 12 5 17 0 24 -2
18 -5z m-566 -25 c-3 -8 -6 -5 -6 6 -1 11 2 17 5 13 3 -3 4 -12 1 -19z m1180
6 c-3 -3 -12 -4 -19 -1 -8 3 -5 6 6 6 11 1 17 -2 13 -5z m-172 -14 c-3 -5 -14
-10 -23 -10 -15 0 -15 2 -2 10 20 13 33 13 25 0z m-254 -25 c19 -8 27 -14 19
-14 -26 -1 -60 11 -60 20 0 12 2 12 41 -6z m-451 -15 c0 -5 -2 -10 -4 -10 -3
0 -8 5 -11 10 -3 6 -1 10 4 10 6 0 11 -4 11 -10z m666 -4 c10 -8 15 -18 11
-22 -4 -4 -17 2 -29 14 -25 25 -13 30 18 8z m1124 -6 c0 -5 -4 -10 -10 -10 -5
0 -10 5 -10 10 0 6 5 10 10 10 6 0 10 -4 10 -10z m-1691 -46 c14 -12 -19 -1
-35 12 -18 14 -18 14 6 3 14 -6 27 -13 29 -15z m1039 -33 c4 -28 -13 -20 -21
9 -3 14 -1 20 6 17 7 -2 14 -14 15 -26z m-1352 2 c-3 -7 -1 -15 4 -18 6 -4 10
-13 10 -21 0 -9 -5 -12 -11 -8 -8 5 -8 1 0 -14 8 -16 6 -25 -9 -45 -11 -14
-20 -30 -20 -35 0 -5 -7 -15 -15 -22 -8 -7 -15 -21 -15 -31 0 -11 -9 -28 -19
-38 -11 -11 -17 -22 -14 -25 3 -3 -7 -4 -23 -3 -19 1 -29 -3 -29 -12 0 -8 -7
-15 -16 -16 -9 -2 -26 -6 -37 -9 -11 -4 -41 -2 -68 4 -34 8 -50 8 -52 0 -2 -5
-8 -7 -13 -4 -6 3 -15 2 -22 -4 -31 -24 -43 -20 -45 14 -2 24 2 34 12 34 8 0
18 -4 21 -10 11 -18 26 -10 20 11 -9 26 2 72 15 64 6 -3 10 -1 10 4 0 6 6 11
14 11 7 0 19 7 26 15 10 12 15 13 21 4 4 -7 15 -9 25 -5 18 7 18 8 0 22 -11 7
-18 15 -15 16 2 2 13 8 24 14 11 6 22 20 24 30 4 22 32 45 45 37 5 -4 6 -1 2
6 -10 16 61 46 113 46 30 1 40 -3 37 -12z m89 7 c4 -6 -7 -10 -25 -10 -18 0
-29 4 -25 10 3 6 15 10 25 10 10 0 22 -4 25 -10z m2205 -54 c0 -11 -19 -15
-25 -6 -3 5 1 10 9 10 9 0 16 -2 16 -4z m-1095 -105 c3 -5 1 -12 -5 -16 -5 -3
-10 1 -10 9 0 18 6 21 15 7z m-585 -27 c0 -8 -4 -12 -10 -9 -5 3 -10 10 -10
16 0 5 5 9 10 9 6 0 10 -7 10 -16z m1897 -10 c-3 -3 -12 -4 -19 -1 -8 3 -5 6
6 6 11 1 17 -2 13 -5z m-3039 -196 c2 -84 1 -151 -1 -148 -8 8 -17 300 -9 300
4 0 8 -69 10 -152z m75 39 c2 -43 0 -80 -4 -83 -5 -3 -9 34 -9 82 0 106 7 107
13 1z m2422 53 c3 -5 1 -10 -4 -10 -6 0 -11 5 -11 10 0 6 2 10 4 10 3 0 8 -4
11 -10z m-1550 -90 c-3 -5 -12 -7 -20 -3 -21 7 -19 13 6 13 11 0 18 -4 14 -10z
m78 -17 c-7 -2 -19 -2 -25 0 -7 3 -2 5 12 5 14 0 19 -2 13 -5z m-363 -23 c-8
-5 -22 -10 -30 -10 -13 0 -13 1 0 10 8 5 22 10 30 10 13 0 13 -1 0 -10z m427
4 c-3 -3 -12 -4 -19 -1 -8 3 -5 6 6 6 11 1 17 -2 13 -5z m780 -26 c-3 -8 -6
-5 -6 6 -1 11 2 17 5 13 3 -3 4 -12 1 -19z m-247 8 c0 -3 -4 -8 -10 -11 -5 -3
-10 -1 -10 4 0 6 5 11 10 11 6 0 10 -2 10 -4z m-495 -16 c3 -5 -3 -10 -15 -10
-12 0 -18 5 -15 10 3 6 10 10 15 10 5 0 12 -4 15 -10z m531 -15 c-26 -19 -42
-19 -26 0 7 8 20 15 29 15 13 -1 13 -3 -3 -15z m-946 -5 c-8 -5 -24 -10 -35
-10 -17 0 -17 2 -5 10 8 5 24 10 35 10 17 0 17 -2 5 -10z m83 -7 c-7 -2 -21
-2 -30 0 -10 3 -4 5 12 5 17 0 24 -2 18 -5z m252 -3 c-27 -12 -35 -12 -35 0 0
6 12 10 28 9 24 0 25 -1 7 -9z m-515 -15 c0 -9 -6 -12 -16 -8 -13 5 -13 7 -2
14 17 11 18 11 18 -6z m455 -1 c-9 -9 -19 -13 -23 -10 -3 4 0 11 8 16 24 15
33 11 15 -6z m135 -4 c0 -5 -5 -10 -11 -10 -5 0 -7 5 -4 10 3 6 8 10 11 10 2
0 4 -4 4 -10z m-77 -37 c-7 -2 -21 -2 -30 0 -10 3 -4 5 12 5 17 0 24 -2 18 -5z
m74 1 c-3 -3 -12 -4 -19 -1 -8 3 -5 6 6 6 11 1 17 -2 13 -5z m-712 -14 c-3 -5
-12 -10 -18 -10 -7 0 -6 4 3 10 19 12 23 12 15 0z m450 -6 c-9 -9 -18 -14 -21
-11 -9 9 6 27 22 27 13 0 13 -2 -1 -16z m-858 -76 c-2 -18 -4 -6 -4 27 0 33 2
48 4 33 2 -15 2 -42 0 -60z m690 76 c-3 -3 -12 -4 -19 -1 -8 3 -5 6 6 6 11 1
17 -2 13 -5z m123 -19 c-7 -9 -15 -13 -18 -10 -3 2 1 11 8 20 7 9 15 13 18 10
3 -2 -1 -11 -8 -20z m-300 5 c0 -5 -4 -10 -10 -10 -5 0 -10 5 -10 10 0 6 5 10
10 10 6 0 10 -4 10 -10z m390 0 c0 -5 -5 -10 -11 -10 -5 0 -7 5 -4 10 3 6 8
10 11 10 2 0 4 -4 4 -10z m80 6 c0 -3 -4 -8 -10 -11 -5 -3 -10 -1 -10 4 0 6 5
11 10 11 6 0 10 -2 10 -4z m250 -26 c12 -8 8 -10 -15 -10 -16 0 -43 -1 -60 -3
-16 -3 -21 -2 -10 0 11 3 24 9 30 14 12 12 36 11 55 -1z m90 0 c0 -5 -2 -10
-4 -10 -3 0 -8 5 -11 10 -3 6 -1 10 4 10 6 0 11 -4 11 -10z m1460 0 c0 -5 -2
-10 -4 -10 -3 0 -8 5 -11 10 -3 6 -1 10 4 10 6 0 11 -4 11 -10z m-2345 -10
c-3 -5 -14 -10 -23 -10 -15 0 -15 2 -2 10 20 13 33 13 25 0z m321 -5 c-11 -8
-25 -15 -30 -15 -6 0 -2 7 8 15 11 8 25 15 30 15 6 0 2 -7 -8 -15z m52 -25
c-7 -11 -18 -20 -25 -20 -7 0 -13 -4 -13 -9 0 -10 -50 -25 -57 -17 -3 3 10 11
28 19 19 8 40 21 48 30 19 24 34 21 19 -3z m270 0 c13 0 14 -2 3 -12 -11 -11
-14 -10 -18 0 -3 6 -9 10 -14 6 -11 -6 -12 9 -2 20 4 4 9 2 11 -3 2 -6 11 -11
20 -11z m-561 4 c-3 -3 -12 -4 -19 -1 -8 3 -5 6 6 6 11 1 17 -2 13 -5z m743 2
c0 -3 -4 -8 -10 -11 -5 -3 -10 -1 -10 4 0 6 5 11 10 11 6 0 10 -2 10 -4z
m-813 -22 c-3 -3 -12 -4 -19 -1 -8 3 -5 6 6 6 11 1 17 -2 13 -5z m253 2 c0 -3
-4 -8 -10 -11 -5 -3 -10 -1 -10 4 0 6 5 11 10 11 6 0 10 -2 10 -4z m1780 -10
c0 -3 -4 -8 -10 -11 -5 -3 -10 -1 -10 4 0 6 5 11 10 11 6 0 10 -2 10 -4z
m-1080 -26 c0 -5 -7 -7 -15 -4 -8 4 -15 8 -15 10 0 2 7 4 15 4 8 0 15 -4 15
-10z m-310 -9 c0 -5 -11 -11 -25 -13 -14 -3 -25 -2 -25 3 0 4 10 10 23 12 12
2 23 5 25 6 1 0 2 -3 2 -8z m-110 -11 c0 -5 -5 -10 -11 -10 -5 0 -7 5 -4 10 3
6 8 10 11 10 2 0 4 -4 4 -10z m340 -10 c0 -5 -4 -10 -10 -10 -5 0 -10 5 -10
10 0 6 5 10 10 10 6 0 10 -4 10 -10z m-415 -20 c13 -6 15 -9 5 -9 -8 0 -22 4
-30 9 -18 12 -2 12 25 0z m-386 -3 c-2 -1 -12 -9 -21 -16 -15 -12 -18 -11 -18
3 0 10 8 16 22 16 12 0 19 -1 17 -3z m341 -7 c0 -5 -5 -10 -11 -10 -5 0 -7 5
-4 10 3 6 8 10 11 10 2 0 4 -4 4 -10z m880 -11 c0 -11 -4 -18 -10 -14 -5 3 -7
12 -3 20 7 21 13 19 13 -6z m-1130 5 c0 -3 -14 -10 -30 -16 -25 -8 -28 -13
-19 -24 8 -9 8 -14 1 -14 -23 0 -24 24 -2 42 21 17 50 24 50 12z m364 -8 c-3
-8 -13 -17 -22 -20 -9 -3 -24 -9 -32 -13 -13 -5 -13 -4 -1 10 7 10 20 17 27
17 8 0 14 5 14 10 0 6 4 10 10 10 5 0 7 -6 4 -14z m-584 -6 c0 -5 -5 -10 -11
-10 -5 0 -7 5 -4 10 3 6 8 10 11 10 2 0 4 -4 4 -10z m65 -20 c-4 -6 -1 -17 5
-25 10 -12 10 -15 -2 -15 -8 0 -19 5 -26 12 -9 9 -7 14 6 24 21 16 25 17 17 4z
m405 -2 c0 -5 -16 -8 -35 -8 -19 0 -35 4 -35 8 0 5 16 8 35 8 19 -1 35 -4 35
-8z m867 -50 c-2 -24 3 -72 10 -108 19 -89 20 -183 4 -327 -10 -92 -17 -120
-27 -116 -8 3 -13 22 -12 53 0 27 -3 53 -6 58 -16 26 -34 166 -30 233 7 106 8
116 17 125 4 4 7 16 7 26 0 10 7 18 15 18 9 0 12 6 9 15 -6 15 3 65 11 65 3 0
3 -19 2 -42z m-547 28 c0 -11 -19 -15 -25 -6 -3 5 1 10 9 10 9 0 16 -2 16 -4z
m200 -3 c-8 -3 -18 -11 -22 -17 -4 -6 -10 -7 -15 -3 -9 10 16 27 37 26 13 -1
13 -1 0 -6z m-610 -13 c0 -5 -7 -10 -16 -10 -8 0 -12 5 -9 10 3 6 10 10 16 10
5 0 9 -4 9 -10z m98 -12 c-5 -13 -38 -20 -38 -8 0 8 17 18 33 19 5 1 7 -4 5
-11z m-528 -18 c0 -5 -4 -10 -10 -10 -5 0 -10 5 -10 10 0 6 5 10 10 10 6 0 10
-4 10 -10z m715 -10 c-3 -5 -11 -10 -16 -10 -6 0 -7 5 -4 10 3 6 11 10 16 10
6 0 7 -4 4 -10z m205 -10 c-8 -5 -17 -7 -19 -4 -3 3 1 9 9 14 8 5 17 7 19 4 3
-3 -1 -9 -9 -14z m-160 -4 c0 -3 -4 -8 -10 -11 -5 -3 -10 -1 -10 4 0 6 5 11
10 11 6 0 10 -2 10 -4z m287 -12 c-3 -3 -12 -4 -19 -1 -8 3 -5 6 6 6 11 1 17
-2 13 -5z m-827 -19 c0 -8 -7 -15 -15 -15 -26 0 -18 20 13 29 1 1 2 -6 2 -14z
m486 0 c-23 -17 -36 -19 -36 -6 0 5 8 12 18 14 32 9 37 6 18 -8z m-86 -5 c0
-5 -5 -10 -11 -10 -5 0 -7 5 -4 10 3 6 8 10 11 10 2 0 4 -4 4 -10z m120 -25
c-7 -8 -20 -15 -29 -15 -11 0 -8 5 9 14 33 19 35 19 20 1z m-120 -15 c0 -5 -5
-10 -11 -10 -5 0 -7 5 -4 10 3 6 8 10 11 10 2 0 4 -4 4 -10z m450 0 c0 -5 -4
-10 -10 -10 -5 0 -10 5 -10 10 0 6 5 10 10 10 6 0 10 -4 10 -10z m-110 -45
c-43 -17 -50 -17 -50 -6 0 11 24 19 60 19 21 0 20 -1 -10 -13z m-90 -15 c0 -5
-4 -10 -10 -10 -5 0 -10 5 -10 10 0 6 5 10 10 10 6 0 10 -4 10 -10z m-385 -10
c-3 -5 -12 -10 -18 -10 -7 0 -6 4 3 10 19 12 23 12 15 0z m345 0 c0 -5 -5 -10
-11 -10 -5 0 -7 5 -4 10 3 6 8 10 11 10 2 0 4 -4 4 -10z m-265 -10 c3 -5 1
-10 -4 -10 -6 0 -11 5 -11 10 0 6 2 10 4 10 3 0 8 -4 11 -10z m-125 -15 c0 -8
-2 -15 -4 -15 -2 0 -6 7 -10 15 -3 8 -1 15 4 15 6 0 10 -7 10 -15z m-297 -12
c-7 -2 -21 -2 -30 0 -10 3 -4 5 12 5 17 0 24 -2 18 -5z m317 -33 c-20 -13 -43
-13 -35 0 3 6 16 10 28 10 18 0 19 -2 7 -10z m197 -16 c-3 -3 -12 -4 -19 -1
-8 3 -5 6 6 6 11 1 17 -2 13 -5z m-247 -14 c0 -5 -4 -10 -10 -10 -5 0 -10 5
-10 10 0 6 5 10 10 10 6 0 10 -4 10 -10z m-30 -20 c0 -5 -5 -10 -11 -10 -5 0
-7 5 -4 10 3 6 8 10 11 10 2 0 4 -4 4 -10z m202 -12 c-7 -7 -12 -8 -12 -2 0
14 12 26 19 19 2 -3 -1 -11 -7 -17z m168 18 c0 -2 -8 -10 -17 -17 -16 -13 -17
-12 -4 4 13 16 21 21 21 13z m-414 -33 c-10 -10 -19 5 -10 18 6 11 8 11 12 0
2 -7 1 -15 -2 -18z m334 -23 c-19 -12 -30 -12 -30 -1 0 10 31 20 40 14 2 -2
-2 -8 -10 -13z m1600 -10 c0 -11 -7 -20 -15 -20 -8 0 -15 9 -15 20 0 11 7 20
15 20 8 0 15 -9 15 -20z m-2100 -40 c0 -5 -4 -10 -9 -10 -6 0 -13 5 -16 10 -3
6 1 10 9 10 9 0 16 -4 16 -10z m360 -34 c0 -2 -7 -6 -15 -10 -8 -3 -15 -1 -15
4 0 6 7 10 15 10 8 0 15 -2 15 -4z m120 -16 c-8 -5 -17 -7 -19 -4 -3 3 1 9 9
14 8 5 17 7 19 4 3 -3 -1 -9 -9 -14z m-50 -30 c0 -5 -5 -10 -11 -10 -5 0 -7 5
-4 10 3 6 8 10 11 10 2 0 4 -4 4 -10z m-170 -10 c0 -5 -7 -10 -16 -10 -8 0
-12 5 -9 10 3 6 10 10 16 10 5 0 9 -4 9 -10z m-191 -129 c1 -35 -5 -22 -12 24
-5 28 -4 34 3 20 5 -11 9 -31 9 -44z m181 5 c0 -2 -7 -6 -15 -10 -8 -3 -15 -1
-15 4 0 6 7 10 15 10 8 0 15 -2 15 -4z m2110 -80 c0 -3 -4 -8 -10 -11 -5 -3
-10 -1 -10 4 0 6 5 11 10 11 6 0 10 -2 10 -4z m-1135 -66 c-3 -5 -12 -10 -18
-10 -7 0 -6 4 3 10 19 12 23 12 15 0z m68 -117 c-7 -2 -19 -2 -25 0 -7 3 -2 5
12 5 14 0 19 -2 13 -5z m957 -65 c0 -5 -4 -8 -10 -8 -5 0 -10 10 -10 23 0 18
2 19 10 7 5 -8 10 -18 10 -22z"/>
<path d="M2740 4351 c0 -5 11 -11 25 -13 28 -6 34 6 9 16 -22 8 -34 7 -34 -3z"/>
<path d="M2672 4278 c5 -15 67 -18 71 -3 1 6 -15 11 -37 13 -28 3 -37 0 -34
-10z"/>
<path d="M2506 4231 c-4 -6 -16 -11 -27 -11 -23 0 -23 -28 1 -47 13 -12 13
-15 -2 -27 -30 -22 -21 -28 40 -25 33 1 69 -3 85 -11 15 -7 30 -11 33 -7 9 9
-16 47 -31 47 -10 0 -15 10 -15 30 0 31 -9 37 -26 20 -11 -11 -27 -2 -41 24
-7 12 -13 15 -17 7z m44 -81 c0 -5 -4 -10 -10 -10 -5 0 -10 5 -10 10 0 6 5 10
10 10 6 0 10 -4 10 -10z"/>
<path d="M2573 4233 c11 -10 57 -13 57 -2 0 5 -14 9 -32 9 -17 0 -28 -3 -25
-7z"/>
<path d="M6279 4099 c0 -2 -2 -13 -4 -24 -2 -11 -9 -21 -15 -23 -6 -2 -15 -15
-20 -28 -5 -13 -16 -24 -24 -24 -8 0 -18 -10 -22 -22 -8 -26 -44 -76 -44 -62
0 5 -5 1 -11 -8 -5 -10 -17 -18 -25 -18 -12 0 -12 -4 3 -24 10 -13 21 -22 25
-20 4 2 23 -7 43 -20 36 -25 133 -44 154 -31 6 3 11 19 11 35 0 19 9 35 25 48
24 19 25 25 25 116 l0 96 -37 0 c-21 0 -48 3 -60 6 -13 4 -23 5 -24 3z"/>
<path d="M2471 4064 c0 -11 3 -14 6 -6 3 7 2 16 -1 19 -3 4 -6 -2 -5 -13z"/>
<path d="M2552 4060 c7 -10 14 -18 15 -16 6 6 -9 36 -18 36 -5 0 -4 -9 3 -20z"/>
<path d="M2642 4068 c6 -18 28 -21 28 -4 0 9 -7 16 -16 16 -9 0 -14 -5 -12
-12z"/>
<path d="M2380 4030 c0 -5 7 -10 16 -10 8 0 12 5 9 10 -3 6 -10 10 -16 10 -5
0 -9 -4 -9 -10z"/>
<path d="M2453 4033 c-13 -2 -23 -9 -23 -14 0 -6 9 -8 19 -4 11 3 22 1 26 -5
9 -15 55 -12 55 4 0 12 -34 28 -50 25 -3 -1 -15 -4 -27 -6z"/>
<path d="M1903 4023 c-18 -7 -16 -33 2 -33 8 0 15 9 15 20 0 11 -1 20 -2 19
-2 0 -9 -3 -15 -6z"/>
<path d="M2416 3985 c-3 -9 0 -15 8 -15 8 0 16 -6 19 -12 3 -10 9 -8 23 4 20
20 19 23 -17 32 -19 4 -29 1 -33 -9z"/>
<path d="M3148 3993 c7 -3 16 -2 19 1 4 3 -2 6 -13 5 -11 0 -14 -3 -6 -6z"/>
<path d="M2785 3980 c-3 -5 -2 -10 4 -10 5 0 13 5 16 10 3 6 2 10 -4 10 -5 0
-13 -4 -16 -10z"/>
<path d="M2300 3966 c-13 -17 4 -29 58 -41 18 -3 30 -11 26 -16 -3 -5 0 -9 5
-9 6 0 11 16 11 35 0 34 -1 36 -33 33 -18 -1 -38 1 -44 5 -6 4 -16 0 -23 -7z"/>
<path d="M1920 3940 c0 -5 4 -10 9 -10 6 0 13 5 16 10 3 6 -1 10 -9 10 -9 0
-16 -4 -16 -10z"/>
<path d="M3703 3923 c9 -2 23 -2 30 0 6 3 -1 5 -18 5 -16 0 -22 -2 -12 -5z"/>
<path d="M1870 3900 c0 -11 -7 -23 -15 -26 -11 -5 -15 -22 -15 -65 0 -50 3
-59 18 -59 26 0 43 15 37 31 -3 8 1 23 9 34 12 17 12 23 -1 48 -11 22 -12 32
-2 43 9 11 7 14 -10 14 -14 0 -21 -6 -21 -20z"/>
<path d="M2105 3861 c6 -6 26 -14 44 -17 26 -6 33 -4 29 7 -3 8 -21 15 -44 17
-27 2 -36 0 -29 -7z"/>
<path d="M2030 3823 c0 -34 12 -63 27 -63 16 0 73 40 73 52 0 4 -13 8 -30 8
-16 0 -30 5 -30 10 0 6 -9 10 -20 10 -12 0 -20 -7 -20 -17z"/>
<path d="M3501 3811 c-12 -8 -12 -12 -2 -24 10 -13 9 -16 -6 -20 -10 -3 5 -3
32 -2 28 2 59 6 70 9 11 2 26 5 33 5 25 2 6 25 -26 32 -17 3 -29 2 -26 -2 3
-5 -4 -9 -15 -9 -11 0 -23 5 -26 10 -8 12 -16 12 -34 1z"/>
<path d="M5887 3790 c-4 -18 -13 -30 -22 -30 -9 0 -19 -8 -22 -17 -4 -10 -17
-32 -30 -49 -13 -17 -23 -35 -23 -40 0 -5 -12 -22 -26 -37 -32 -34 -24 -45 38
-53 72 -10 93 -1 118 53 49 107 65 138 73 141 4 2 7 15 7 29 0 23 -2 24 -40
18 -26 -4 -40 -3 -40 4 0 25 -28 9 -33 -19z"/>
<path d="M4560 3789 c0 -5 5 -7 10 -4 6 3 10 8 10 11 0 2 -4 4 -10 4 -5 0 -10
-5 -10 -11z"/>
<path d="M2216 3775 c-3 -9 0 -15 9 -15 8 0 15 7 15 15 0 8 -4 15 -9 15 -5 0
-11 -7 -15 -15z"/>
<path d="M1940 3770 c-12 -8 -10 -10 8 -10 13 0 20 4 17 10 -7 12 -6 12 -25 0z"/>
<path d="M4688 3763 c12 -2 30 -2 40 0 9 3 -1 5 -23 4 -22 0 -30 -2 -17 -4z"/>
<path d="M778 3715 c-2 -31 1 -45 9 -45 7 0 13 -5 13 -10 0 -6 12 -15 28 -21
23 -9 25 -12 12 -22 -12 -9 -14 -22 -9 -52 4 -22 5 -43 3 -47 -2 -3 1 -8 8
-10 17 -6 0 -28 -23 -28 -23 0 -26 -25 -3 -34 13 -5 15 -17 9 -75 -5 -55 -4
-71 9 -84 9 -8 16 -31 15 -49 0 -32 -1 -32 -10 -8 -13 33 -24 14 -34 -57 l-7
-53 -79 0 -79 0 0 -65 0 -65 -50 0 c-27 0 -50 5 -50 10 0 6 -13 10 -30 10 -25
0 -30 -4 -30 -25 0 -22 -4 -25 -40 -25 -33 0 -40 -3 -40 -20 0 -17 -7 -20 -40
-20 -38 0 -40 2 -40 30 0 28 -2 30 -40 30 -22 0 -40 5 -40 10 0 6 -18 10 -40
10 -33 0 -40 -3 -40 -20 0 -13 -7 -20 -20 -20 -17 0 -20 -7 -20 -40 0 -33 3
-40 20 -40 17 0 20 7 20 40 l0 40 40 0 40 0 0 -55 0 -55 -40 0 c-39 0 -40 -1
-40 -35 0 -34 -1 -35 -40 -35 -38 0 -40 2 -40 30 0 28 -2 30 -40 30 l-40 0 0
-60 0 -60 40 0 40 0 0 -40 0 -40 -40 0 -40 0 0 -1320 0 -1320 114 0 113 0 7
43 c7 44 71 182 90 195 6 4 16 16 22 27 6 11 20 24 32 30 12 5 22 13 22 17 0
5 8 8 18 8 9 0 24 5 32 10 13 9 13 11 0 21 -13 9 -12 10 3 5 35 -11 124 42 97
59 -17 10 -12 20 20 38 17 10 30 24 30 31 0 17 35 48 44 39 4 -4 9 3 13 15 3
12 11 22 18 22 7 0 15 10 18 21 4 14 11 20 21 16 10 -4 26 7 47 33 18 22 35
37 40 34 4 -2 13 5 19 16 6 12 21 20 35 20 14 0 25 5 25 11 0 7 17 10 44 8 24
-2 43 -2 40 0 -2 2 4 10 14 17 15 12 11 13 -25 8 -30 -5 -43 -3 -43 5 0 9 22
12 72 10 64 -2 73 0 86 19 17 26 37 28 46 6 11 -29 6 -44 -13 -44 -11 0 -23
-4 -26 -10 -3 -5 1 -10 9 -10 20 0 21 -18 2 -39 -8 -10 -16 -53 -21 -108 l-7
-93 41 0 c23 0 41 -4 41 -8 0 -18 -26 -32 -62 -32 -31 0 -38 -4 -38 -20 0 -11
-4 -20 -10 -20 -6 0 -10 27 -10 60 l0 60 -30 0 c-18 0 -30 -5 -30 -13 0 -17
-42 -57 -59 -57 -7 0 -24 -14 -38 -31 -17 -20 -32 -29 -45 -26 -11 3 -18 0
-18 -8 0 -7 -17 -23 -37 -35 -21 -13 -32 -25 -25 -27 27 -10 9 -22 -42 -28
-54 -7 -55 -7 -71 -54 -9 -25 -18 -72 -22 -103 -3 -32 -10 -58 -14 -58 -5 0
-9 -18 -9 -40 l0 -40 266 0 c242 0 268 2 280 18 7 9 14 27 14 40 0 15 6 22 20
22 11 0 20 4 20 8 0 12 -44 52 -57 52 -6 0 -4 14 5 35 17 36 26 42 37 25 4 -6
18 0 37 15 37 31 78 34 78 4 0 -11 -5 -29 -10 -40 -6 -11 -7 -19 -1 -19 5 0
12 12 15 28 10 38 30 82 38 82 3 0 9 15 13 32 12 63 25 78 67 78 26 0 38 -4
38 -14 0 -15 62 -40 93 -38 14 1 17 -8 17 -44 0 -24 5 -44 10 -44 6 0 10 5 10
10 0 6 5 10 10 10 6 0 10 -5 10 -11 0 -7 12 -23 26 -36 17 -15 24 -31 21 -43
-3 -13 1 -21 14 -25 10 -4 26 -22 35 -41 12 -25 25 -37 45 -41 38 -7 37 -22
-1 -30 -24 -4 -28 -8 -19 -19 9 -12 87 -14 428 -14 287 0 420 3 428 11 8 8 13
8 17 0 9 -14 86 -14 86 0 0 5 5 7 10 4 6 -4 10 6 10 21 0 22 -3 25 -12 16 -16
-16 -38 -15 -38 2 0 10 -7 12 -22 8 -18 -4 -20 -2 -14 14 19 46 20 58 3 51
-18 -7 -23 10 -9 28 11 16 41 15 35 -1 -3 -8 1 -14 11 -14 9 0 16 3 16 8 0 4
14 13 31 21 18 8 34 22 36 32 3 11 9 19 14 19 5 0 9 9 9 20 0 17 -4 19 -27 14
-16 -4 -32 -11 -37 -15 -6 -5 -19 -9 -30 -9 -14 0 -17 3 -9 8 14 9 12 82 -2
82 -5 0 -1 7 9 15 19 14 19 15 -7 15 -25 0 -31 7 -24 28 1 4 27 7 57 7 47 0
55 3 55 19 0 13 -8 20 -27 23 -28 4 -39 -12 -15 -20 6 -2 -1 -3 -16 -1 -17 2
-26 0 -22 -6 7 -11 -8 -14 -18 -4 -7 7 36 68 68 97 16 15 17 20 5 27 -8 6 -18
10 -22 10 -4 0 0 16 9 35 21 43 10 57 -20 26 -15 -16 -18 -25 -9 -28 18 -7 4
-23 -21 -24 -12 0 -16 -3 -9 -6 10 -4 10 -8 1 -19 -9 -11 -8 -14 2 -14 8 0 0
-9 -17 -20 -34 -22 -73 -18 -54 5 8 10 6 15 -9 20 -23 7 -44 -2 -36 -15 3 -5
1 -11 -5 -15 -6 -4 -10 5 -10 22 0 39 -15 62 -23 34 -4 -15 -13 -21 -34 -21
-15 0 -34 -4 -42 -9 -17 -11 -6 -31 19 -31 10 0 20 -7 23 -15 5 -10 22 -13 69
-12 47 2 68 -2 81 -14 18 -16 18 -18 1 -44 -17 -26 -17 -28 4 -44 l22 -16 -30
-1 c-17 -1 -30 3 -30 8 0 5 -6 3 -14 -4 -10 -9 -11 -15 -2 -20 7 -5 4 -12 -9
-22 -26 -20 -40 -20 -60 0 -9 9 -37 21 -63 25 -26 5 -58 15 -71 21 -19 10 -25
10 -28 1 -8 -22 -21 -14 -28 17 -8 38 -23 47 -39 24 -12 -16 -14 -14 -27 14
-8 20 -16 27 -21 19 -5 -8 -15 -4 -33 13 l-26 24 25 13 c31 16 26 54 -7 45
-15 -4 -19 -1 -14 10 3 9 0 21 -6 27 -8 8 -8 14 0 22 6 6 9 17 6 25 -3 8 5 16
21 20 31 7 34 20 6 29 -11 3 -20 13 -20 20 0 9 6 12 16 8 10 -4 17 1 21 16 7
27 21 27 33 -1 6 -15 9 -17 9 -7 1 12 11 16 41 16 22 0 40 -4 40 -9 0 -5 4 -7
9 -3 5 3 13 0 17 -6 4 -7 15 -2 30 15 32 34 30 42 -4 17 -24 -17 -31 -18 -43
-6 -8 7 -34 16 -58 19 -67 9 -86 50 -25 54 23 2 33 -1 29 -8 -3 -5 -18 -10
-33 -10 -19 0 -23 -3 -15 -11 6 -6 31 -10 56 -8 28 3 49 -1 57 -9 9 -10 15
-11 23 -3 14 14 -2 31 -31 34 -11 0 -18 5 -16 9 6 10 57 -2 65 -15 4 -5 11 -7
17 -3 6 3 12 1 14 -5 3 -8 10 -9 23 -2 23 12 48 6 39 -9 -4 -6 -1 -8 7 -6 8 3
13 15 11 28 -2 19 2 22 22 18 20 -4 25 0 29 21 3 14 1 30 -4 35 -5 6 -9 2 -9
-12 0 -27 -16 -28 -53 -3 -23 15 -25 19 -12 24 9 4 18 1 21 -8 4 -8 10 -12 15
-9 14 8 10 24 -6 24 -8 0 -15 5 -15 10 0 6 -7 10 -15 10 -8 0 -22 8 -32 18
-10 11 -39 24 -65 31 -25 7 -56 24 -67 37 -11 13 -26 24 -33 24 -6 0 -9 -3 -5
-6 3 -4 0 -13 -8 -20 -7 -8 -15 -19 -18 -26 -4 -10 -7 -10 -18 -1 -10 10 -10
16 2 30 20 24 40 73 34 82 -2 5 -15 6 -27 4 -13 -2 -32 2 -43 11 -20 14 -20
15 3 39 l24 25 -23 4 c-13 2 -25 11 -27 20 -3 14 4 18 31 18 26 0 36 5 40 20
3 13 14 20 30 20 15 0 28 8 35 22 8 18 11 19 11 6 1 -9 5 -19 10 -22 14 -9 -1
46 -18 66 -16 19 -47 26 -36 8 3 -6 -5 -10 -18 -10 -20 0 -24 4 -20 20 4 15
-2 22 -22 30 -15 6 -31 8 -36 4 -5 -3 -9 0 -9 6 0 6 -5 8 -12 3 -36 -22 -68
-2 -68 43 0 35 -16 44 -38 22 -9 -9 -15 -9 -24 0 -7 7 -22 12 -35 12 -25 0
-29 10 -12 27 17 17 -7 26 -32 12 -20 -10 -21 -9 -15 14 10 41 -1 58 -32 46
-14 -5 -32 -7 -40 -4 -8 3 -30 1 -49 -6 -34 -11 -70 2 -57 22 2 5 -7 11 -21
15 -24 6 -35 24 -14 24 5 0 8 4 4 9 -3 6 -30 9 -59 8 -30 -1 -52 -5 -50 -8 2
-3 -8 -4 -21 -1 -28 5 -33 19 -8 24 12 2 11 6 -8 15 -13 6 -32 14 -42 17 -28
9 -10 26 29 26 21 0 43 8 56 20 12 11 28 20 35 20 8 0 13 13 13 39 l0 39 58 7
c31 3 72 6 90 6 45 0 40 14 -10 26 l-43 9 43 8 c52 10 51 30 -1 34 -41 4 -51
22 -12 22 15 0 25 6 25 15 0 16 54 29 91 22 15 -2 7 -5 -18 -6 -32 -1 -43 -5
-43 -17 0 -13 9 -15 53 -10 117 12 162 21 144 29 -10 4 -30 4 -43 1 -14 -4
-31 -1 -40 7 -13 11 -12 14 13 25 26 12 27 12 5 13 -14 1 -21 5 -16 12 3 6 17
8 31 4 32 -8 95 4 87 17 -4 5 -23 8 -44 6 -21 -2 -36 1 -33 5 3 5 -5 6 -18 2
-13 -3 -32 -9 -41 -11 -40 -11 -15 13 30 29 58 21 86 22 106 2 16 -17 36 -20
36 -6 0 5 11 12 24 15 13 3 26 12 29 20 4 10 1 13 -9 9 -7 -3 -14 -1 -14 4 0
5 20 20 45 32 33 17 44 27 41 39 -8 25 19 95 41 107 10 5 20 13 23 17 3 4 30
14 59 21 69 18 51 32 -37 29 -41 -1 -68 -7 -78 -17 -9 -8 -25 -15 -37 -15 -35
0 -67 -11 -61 -21 3 -5 -7 -9 -22 -9 -15 0 -41 -13 -61 -30 -20 -18 -45 -30
-62 -30 -34 0 -59 -25 -67 -68 -6 -29 -10 -32 -45 -32 -28 0 -39 -4 -39 -15 0
-11 -11 -15 -40 -15 -22 0 -40 -4 -40 -10 0 -5 -18 -10 -40 -10 -22 0 -40 4
-40 10 0 5 -7 7 -15 4 -8 -4 -15 -10 -15 -15 0 -5 7 -9 15 -9 8 0 15 -6 15
-14 0 -8 6 -17 13 -19 10 -4 10 -6 0 -6 -7 -1 -13 -8 -13 -16 0 -10 -10 -15
-32 -15 -18 0 -43 -3 -55 -6 -14 -4 -23 -2 -23 5 0 6 7 11 15 11 8 0 15 5 15
10 0 13 -17 13 -25 0 -7 -12 -122 -12 -150 0 -17 7 -17 9 -2 9 27 1 20 21 -8
21 -16 0 -25 6 -25 15 0 9 -9 19 -20 23 -13 5 -16 12 -11 21 7 10 13 10 29 2
11 -6 29 -11 39 -10 14 0 15 2 3 6 -36 14 -42 63 -7 61 38 -1 48 2 42 12 -3 6
-19 10 -36 10 -16 0 -29 4 -29 10 0 5 7 7 15 4 25 -10 44 13 36 44 -6 21 -14
28 -39 30 -32 3 -46 22 -17 22 8 0 15 4 15 9 0 13 -23 20 -51 15 -13 -2 -46 2
-74 10 -42 12 -46 16 -28 21 22 7 21 8 -17 61 -22 29 -40 57 -40 61 0 4 -14
24 -30 43 -33 38 -33 39 -22 58 6 9 12 5 23 -15 8 -15 26 -40 42 -55 15 -15
27 -32 27 -38 0 -7 6 -8 18 -1 13 7 22 7 30 -1 8 -8 13 -7 18 5 8 22 -4 89
-16 82 -5 -3 -12 0 -15 5 -4 6 -17 16 -28 21 -58 26 -137 86 -137 104 0 7 -11
24 -24 38 -13 14 -33 45 -45 69 -12 23 -26 50 -30 58 -10 17 -23 48 -45 102
-8 21 -23 99 -32 173 -22 167 -12 288 33 404 25 66 34 78 74 103 51 31 69 36
154 39 l60 2 -73 7 c-40 5 -86 13 -101 20 -15 6 -32 10 -37 9 -13 -4 -84 23
-84 32 0 4 -17 10 -37 14 -20 4 -43 14 -50 23 -10 14 -14 15 -22 3 -7 -11 -10
-11 -17 1 -5 9 -19 18 -30 22 -20 6 -22 2 -26 -39z m79 -667 c-3 -8 -6 -5 -6
6 -1 11 2 17 5 13 3 -3 4 -12 1 -19z m283 -478 c0 -5 -4 -10 -10 -10 -5 0 -10
5 -10 10 0 6 5 10 10 10 6 0 10 -4 10 -10z m180 -320 c0 -13 -11 -13 -30 0
-12 8 -11 10 8 10 12 0 22 -4 22 -10z m880 -114 c0 -3 -4 -8 -10 -11 -5 -3
-10 -1 -10 4 0 6 5 11 10 11 6 0 10 -2 10 -4z m-853 -147 c-13 -21 5 -41 48
-56 l29 -9 -32 -15 c-23 -10 -32 -21 -32 -37 l0 -23 27 21 c19 15 28 17 34 9
12 -20 -12 -59 -37 -59 -13 0 -26 -4 -29 -10 -3 -5 1 -10 9 -10 9 0 16 -5 16
-10 0 -6 15 -17 33 -25 17 -8 27 -14 20 -15 -18 0 -67 20 -74 31 -4 6 -21 6
-50 0 -49 -11 -70 -1 -50 23 16 19 -5 56 -31 56 -10 0 -18 5 -18 10 0 6 5 10
10 10 6 0 10 6 10 14 0 8 9 18 20 21 11 4 17 11 14 17 -4 6 -10 6 -17 -1 -18
-18 -47 -13 -47 8 0 27 37 51 77 51 18 0 33 4 33 9 0 5 11 8 24 7 19 -1 21 -4
13 -17z m268 -219 c-3 -5 -12 -7 -20 -3 -21 7 -19 13 6 13 11 0 18 -4 14 -10z
m42 4 c-3 -3 -12 -4 -19 -1 -8 3 -5 6 6 6 11 1 17 -2 13 -5z m-297 -19 c0 -9
-10 -15 -26 -15 -14 0 -35 -5 -47 -11 -15 -7 -13 -2 8 15 33 29 65 34 65 11z
m-260 -10 c-13 -16 -6 -35 14 -35 8 0 19 -7 26 -15 7 -8 21 -15 33 -15 30 0
59 -38 46 -61 -5 -11 -6 -19 -2 -19 4 0 2 -4 -5 -8 -9 -6 1 -13 30 -22 24 -7
37 -15 29 -18 -10 -3 -10 -6 -1 -12 17 -10 3 -30 -20 -30 -12 0 -26 -13 -35
-30 -9 -17 -23 -30 -35 -30 -23 0 -36 -18 -23 -31 6 -6 16 -2 28 11 10 11 27
20 38 20 11 0 25 8 32 17 18 25 53 26 65 3 6 -12 21 -20 35 -20 14 0 25 -4 25
-10 0 -5 -16 -9 -35 -8 -22 1 -35 6 -35 15 0 18 -17 16 -24 -3 -11 -27 -7 -36
14 -31 11 3 23 1 26 -4 3 -6 14 -7 25 -4 25 8 46 -4 28 -16 -11 -6 -10 -9 4
-13 51 -17 50 -19 -8 -30 -69 -13 -62 -26 14 -23 33 1 51 6 51 15 0 6 2 12 4
12 2 0 11 3 20 6 14 5 14 3 0 -25 -10 -20 -23 -31 -37 -32 -19 0 -18 -2 6 -11
22 -8 31 -7 40 5 17 21 57 29 57 11 0 -28 18 -13 24 21 5 22 13 35 23 35 11 0
13 -4 5 -12 -5 -7 -9 -24 -7 -38 1 -14 3 -31 4 -37 0 -7 10 -13 21 -13 11 0
20 -4 20 -10 0 -21 26 -9 43 20 20 33 13 39 -15 13 -10 -9 -21 -13 -26 -9 -4
4 7 19 23 34 30 26 22 27 -29 7 -14 -6 -17 -4 -14 6 3 8 18 18 34 22 16 5 41
15 55 22 17 8 32 9 43 3 12 -7 18 -5 22 7 6 13 8 12 18 -7 19 -39 44 -35 52 9
l7 38 12 -29 c12 -28 13 -29 19 -8 9 27 26 29 26 3 0 -11 9 -23 21 -26 11 -4
18 -13 16 -20 -3 -7 0 -18 6 -24 8 -8 7 -11 -3 -11 -13 0 -13 -2 0 -10 13 -8
12 -11 -5 -24 -20 -15 -20 -15 0 -16 l20 -1 -20 -8 c-11 -5 -35 -7 -53 -6 -25
1 -41 -6 -64 -27 -27 -25 -35 -28 -55 -19 -31 14 -31 15 -26 -13 3 -14 13 -27
22 -28 17 -4 81 27 93 45 3 6 38 9 85 7 109 -4 126 -6 143 -12 8 -4 23 -9 32
-12 12 -3 16 -11 11 -23 -6 -16 -5 -16 10 -4 10 8 17 9 17 3 0 -6 -5 -14 -11
-17 -6 -5 -3 -13 10 -22 12 -8 19 -19 15 -24 -4 -6 -13 -4 -24 6 -10 9 -20 12
-23 8 -10 -16 15 -93 30 -93 10 0 12 6 8 20 -7 22 10 28 18 6 8 -21 -34 -56
-61 -49 -13 3 -22 1 -22 -6 0 -5 -7 -8 -15 -5 -8 4 -15 1 -15 -5 0 -8 11 -10
35 -5 37 7 48 -8 19 -24 -14 -8 -15 -15 -6 -41 9 -24 8 -31 -1 -30 -33 4 -49
-2 -44 -16 4 -8 1 -17 -5 -21 -7 -5 -9 2 -6 20 3 17 1 25 -5 23 -6 -2 -12 -21
-13 -42 0 -24 -8 -43 -19 -51 -11 -8 -14 -14 -8 -14 6 0 9 -9 6 -20 -4 -16 0
-20 18 -20 12 0 19 -3 15 -7 -4 -4 -17 -8 -29 -8 -15 0 -22 -6 -23 -20 -2 -40
-4 -46 -14 -40 -6 4 -8 10 -5 15 15 25 7 81 -14 101 -12 12 -25 18 -29 14 -3
-3 0 -10 8 -15 12 -7 12 -12 3 -21 -10 -10 -9 -15 4 -24 13 -10 14 -17 5 -41
l-10 -29 -1 34 c-1 29 -3 32 -16 21 -8 -7 -15 -20 -15 -29 0 -29 -18 -47 -31
-34 -9 9 -9 16 -1 26 7 8 9 17 5 20 -9 9 -33 -12 -33 -29 0 -19 -29 -18 -36 1
-6 14 -8 13 -20 -2 -11 -15 -15 -15 -23 -5 -12 20 -43 11 -57 -16 -6 -12 -14
-19 -19 -14 -4 4 -5 -2 -1 -14 4 -14 0 -27 -14 -39 -11 -10 -20 -23 -20 -30 0
-7 -9 -22 -20 -35 -11 -13 -20 -24 -20 -26 0 -1 15 -2 34 -1 19 1 32 5 30 8
-7 12 18 80 29 76 6 -2 15 -19 20 -38 10 -39 28 -55 40 -34 7 14 -7 53 -23 65
-4 3 8 12 26 21 25 12 34 13 34 4 0 -7 -9 -15 -20 -18 -22 -6 -24 -14 -10 -37
8 -13 11 -12 24 5 14 18 15 18 16 3 0 -10 -4 -18 -10 -18 -5 0 -10 -9 -10 -20
0 -11 -6 -20 -12 -21 -55 -2 -91 -10 -104 -23 -21 -21 -9 -39 16 -24 23 15 70
-6 70 -31 0 -12 -3 -11 -14 4 -13 18 -14 18 -25 -2 -9 -18 -8 -22 7 -26 12 -3
10 -5 -8 -7 -21 -2 -20 -3 10 -10 20 -5 40 -5 46 1 6 5 15 5 19 1 5 -4 5 1 2
11 -9 24 8 54 54 97 21 19 40 46 44 60 6 25 5 24 -19 -5 -14 -16 -28 -26 -32
-22 -4 4 -2 13 4 19 7 7 12 20 12 29 0 9 11 24 25 33 14 9 25 23 25 31 0 8 5
15 11 15 5 0 7 -4 4 -10 -9 -14 -13 -120 -5 -120 4 0 12 11 18 25 6 14 16 25
22 25 14 0 13 -13 -2 -28 -9 -9 -9 -15 0 -24 9 -9 12 -7 12 10 0 23 19 32 21
10 0 -7 4 -4 8 7 8 19 9 19 32 -8 57 -66 90 -97 105 -97 11 0 14 -5 10 -16 -7
-17 11 -91 27 -112 6 -8 14 -9 21 -3 15 13 103 1 117 -15 6 -8 20 -14 31 -14
25 0 79 -56 72 -75 -4 -8 -12 -15 -20 -15 -8 0 -13 -3 -13 -7 4 -23 -4 -32
-31 -38 -16 -4 -30 -11 -30 -16 0 -5 -10 -9 -23 -9 -12 0 -33 -7 -45 -16 -24
-16 -27 -13 -34 31 -2 12 -10 19 -20 17 -9 -1 -19 5 -22 15 -6 15 -8 15 -16 3
-7 -10 -10 -11 -10 -2 0 6 -11 12 -25 12 -18 0 -28 -7 -36 -27 -5 -14 -8 -32
-5 -38 3 -9 -1 -10 -20 -1 -17 8 -24 19 -24 41 0 21 3 26 9 16 6 -9 8 -4 6 18
-3 43 -12 49 -24 17 -17 -42 -33 -32 -27 17 3 23 8 74 11 112 4 39 8 84 11
100 l4 30 -16 -28 c-12 -23 -20 -28 -39 -23 -28 7 -42 -9 -25 -29 7 -8 9 -15
4 -15 -5 0 0 -7 10 -15 19 -14 19 -15 -7 -15 -19 0 -25 4 -21 15 4 8 1 15 -6
15 -7 0 -9 8 -5 19 7 23 -14 39 -26 20 -5 -8 -9 -29 -9 -47 0 -22 -4 -32 -12
-30 -16 6 -32 82 -18 86 5 2 7 8 4 13 -10 16 -34 -11 -34 -37 0 -13 -4 -24 -9
-24 -13 0 -21 -53 -9 -67 17 -21 -10 -43 -53 -43 -44 0 -69 27 -69 74 l0 29
-26 -29 -26 -29 7 52 c4 34 3 53 -3 53 -6 0 -14 -5 -17 -10 -9 -14 -27 -1 -21
15 3 8 -6 16 -22 20 -32 8 -54 24 -47 35 3 4 -2 11 -10 14 -9 3 -20 17 -25 31
-8 22 -13 24 -30 15 -18 -10 -20 -8 -20 21 0 27 -3 30 -22 26 -21 -6 -23 -2
-23 33 -1 30 -8 47 -30 70 -16 16 -26 33 -22 36 4 4 2 13 -4 21 -9 9 -8 13 0
13 6 0 11 5 11 11 0 5 -5 7 -10 4 -6 -4 -16 -2 -23 3 -7 5 -26 13 -44 16 -17
4 -39 18 -48 33 -13 19 -22 23 -42 18 -19 -4 -29 -1 -40 15 -8 12 -21 19 -29
16 -9 -4 -14 2 -14 15 0 15 -5 19 -19 14 -25 -8 -44 19 -39 55 4 24 1 30 -14
30 -12 0 -18 7 -18 24 0 13 -9 34 -21 47 -11 13 -18 18 -14 12 7 -15 -7 -17
-21 -3 -6 6 -8 -7 -6 -35 l4 -44 -36 1 c-32 1 -37 5 -47 37 -6 20 -15 40 -20
45 -5 6 -9 19 -9 31 0 12 -5 26 -10 31 -7 7 -2 15 15 24 18 10 25 21 25 44 0
51 30 177 45 193 8 8 15 23 15 33 0 10 12 22 28 29 25 10 27 15 26 64 -1 35 3
58 14 70 8 9 13 20 9 23 -8 8 23 94 34 94 10 0 -10 41 -26 52 -5 4 0 8 12 8
12 0 25 5 28 10 3 6 15 10 27 10 17 0 18 -3 8 -15z m392 3 c-9 -9 -15 -9 -24
0 -9 9 -7 12 12 12 19 0 21 -3 12 -12z m11 -75 c-7 -2 -19 -2 -25 0 -7 3 -2 5
12 5 14 0 19 -2 13 -5z m65 0 c-10 -2 -26 -2 -35 0 -10 3 -2 5 17 5 19 0 27
-2 18 -5z m-78 -250 c0 -11 -33 -43 -44 -43 -6 0 -2 7 8 15 11 8 16 15 12 15
-4 0 -4 5 -1 10 7 11 25 14 25 3z m487 -139 c-3 -3 -12 -4 -19 -1 -8 3 -5 6 6
6 11 1 17 -2 13 -5z m213 -343 c0 -10 -9 -21 -21 -24 -15 -4 -19 -2 -15 10 3
8 6 19 6 24 0 5 7 9 15 9 8 0 15 -8 15 -19z m23 -58 c-7 -3 -13 -13 -13 -24 0
-10 -4 -19 -10 -19 -17 0 -11 32 7 46 10 7 20 10 23 7 3 -3 -1 -8 -7 -10z m91
2 c4 -10 -1 -15 -15 -15 -17 0 -18 2 -7 15 16 18 15 18 22 0z m-144 -15 c0 -5
-4 -10 -10 -10 -5 0 -10 5 -10 10 0 6 5 10 10 10 6 0 10 -4 10 -10z m-45 -30
c3 -5 -1 -10 -10 -10 -9 0 -13 5 -10 10 3 6 8 10 10 10 2 0 7 -4 10 -10z m135
6 c0 -3 -4 -8 -10 -11 -5 -3 -10 -1 -10 4 0 6 5 11 10 11 6 0 10 -2 10 -4z
m37 -2 c-3 -3 -12 -4 -19 -1 -8 3 -5 6 6 6 11 1 17 -2 13 -5z m148 -4 c3 -6
-4 -10 -17 -10 -18 0 -20 2 -8 10 19 12 18 12 25 0z m-355 -46 c0 -14 -3 -15
-17 -3 -10 7 -20 15 -22 16 -2 2 5 3 17 3 14 0 22 -6 22 -16z m210 6 c0 -12
-40 -13 -58 -1 -8 5 0 8 23 9 19 1 35 -3 35 -8z m185 -22 c7 -7 -3 -9 -32 -4
-23 3 -43 2 -45 -4 -2 -5 -14 0 -28 11 l-25 19 60 -6 c33 -3 65 -11 70 -16z
m-335 -53 c-6 -7 -12 -27 -12 -44 -1 -17 -8 -37 -16 -43 -13 -11 -14 -7 -7 32
4 25 11 47 15 50 4 3 11 19 15 35 8 28 9 28 13 7 2 -13 -2 -29 -8 -37z m47 23
c-3 -7 -5 -2 -5 12 0 14 2 19 5 13 2 -7 2 -19 0 -25z m-107 2 c0 -5 -4 -10
-10 -10 -5 0 -10 5 -10 10 0 6 5 10 10 10 6 0 10 -4 10 -10z m7 -52 c-3 -8 -6
-5 -6 6 -1 11 2 17 5 13 3 -3 4 -12 1 -19z m-351 -60 c-3 -13 -6 -32 -6 -42 0
-12 -3 -16 -9 -10 -11 12 -2 74 11 74 6 0 8 -10 4 -22z m324 3 c0 -3 -11 -7
-25 -7 -24 -2 -32 6 -19 18 7 7 44 -2 44 -11z m-213 -28 c-14 -14 -19 -15 -29
-4 -11 10 -9 15 6 27 27 20 47 0 23 -23z m-80 -5 c-3 -7 -5 -2 -5 12 0 14 2
19 5 13 2 -7 2 -19 0 -25z m370 10 c-3 -8 -6 -5 -6 6 -1 11 2 17 5 13 3 -3 4
-12 1 -19z m-41 -64 c-15 -14 -16 -14 -16 5 0 12 5 21 11 21 6 0 9 6 6 14 -3
8 -3 17 1 21 4 4 8 -5 10 -19 2 -14 -4 -33 -12 -42z m34 -29 c0 -8 -4 -15 -9
-15 -13 0 -22 16 -14 24 11 11 23 6 23 -9z m350 -29 c0 -3 -4 -8 -10 -11 -5
-3 -10 -1 -10 4 0 6 5 11 10 11 6 0 10 -2 10 -4z m-1020 -96 c0 -5 -5 -10 -11
-10 -5 0 -7 5 -4 10 3 6 8 10 11 10 2 0 4 -4 4 -10z m-210 -87 c-1 -19 -18
-33 -33 -27 -26 10 -20 34 8 34 14 0 25 -3 25 -7z m1347 -35 l1 -43 -8 35 c-7
30 -6 50 4 50 1 0 3 -19 3 -42z m-670 -30 c-3 -8 -6 -5 -6 6 -1 11 2 17 5 13
3 -3 4 -12 1 -19z m73 -4 c0 -8 -5 -12 -10 -9 -6 4 -8 11 -5 16 9 14 15 11 15
-7z m-60 -24 c0 -5 -4 -10 -10 -10 -5 0 -10 5 -10 10 0 6 5 10 10 10 6 0 10
-4 10 -10z m686 -11 c3 -6 0 -15 -7 -20 -22 -14 -29 -11 -29 11 0 21 24 27 36
9z m74 -9 c0 -5 -6 -10 -14 -10 -8 0 -21 -3 -30 -6 -9 -3 -16 -1 -16 4 0 9 9
13 53 21 4 0 7 -3 7 -9z m-180 -24 c0 -3 -4 -8 -10 -11 -5 -3 -10 -1 -10 4 0
6 5 11 10 11 6 0 10 -2 10 -4z m-390 -62 c0 -21 -4 -33 -10 -29 -17 10 -11 65
7 65 2 0 3 -16 3 -36z m-1097 19 c-7 -2 -19 -2 -25 0 -7 3 -2 5 12 5 14 0 19
-2 13 -5z m77 -23 c-20 -13 -53 -13 -45 0 3 6 18 10 33 10 21 0 24 -2 12 -10z
m1470 0 c0 -5 -5 -10 -11 -10 -5 0 -7 5 -4 10 3 6 8 10 11 10 2 0 4 -4 4 -10z
m-1460 -50 c0 -5 -18 -10 -40 -10 -22 0 -40 5 -40 10 0 6 18 10 40 10 22 0 40
-4 40 -10z"/>
<path d="M1265 1870 c-4 -6 3 -10 14 -10 25 0 27 6 6 13 -8 4 -17 2 -20 -3z"/>
<path d="M1024 1442 c-6 -5 -4 -13 8 -24 19 -19 21 -15 10 14 -4 10 -12 14
-18 10z"/>
<path d="M990 1380 c0 -5 7 -10 15 -10 8 0 15 5 15 10 0 6 -7 10 -15 10 -8 0
-15 -4 -15 -10z"/>
<path d="M1033 1365 c-10 -11 -17 -61 -14 -106 1 -9 16 -27 35 -39 22 -16 39
-40 50 -71 10 -26 25 -50 34 -52 15 -4 15 -5 0 -6 -20 -1 -24 -16 -7 -27 8 -4
7 -9 -2 -15 -13 -8 31 -13 81 -10 10 0 11 -1 3 -5 -27 -12 -11 -24 32 -24 28
0 45 -4 45 -12 0 -6 6 -4 13 7 8 10 19 15 26 11 12 -8 76 32 67 42 -4 3 -16
-4 -29 -16 -20 -19 -26 -20 -72 -9 l-50 12 37 3 c21 2 39 9 42 18 8 21 -3 37
-20 30 -7 -3 -16 -1 -19 4 -4 6 3 10 14 10 12 0 21 5 21 10 0 6 6 10 13 10 8
0 22 9 32 20 18 20 18 21 -1 35 -10 8 -22 15 -26 15 -5 0 -8 11 -8 25 0 22 -4
24 -30 22 -17 -2 -33 -7 -37 -10 -8 -9 -126 -9 -147 -1 -9 3 -16 13 -16 20 0
8 -7 17 -15 20 -10 4 -13 14 -9 28 3 14 -1 27 -10 35 -9 7 -14 17 -11 21 9 14
-9 19 -22 5z m242 -165 c-3 -5 -13 -10 -21 -10 -8 0 -12 5 -9 10 3 6 13 10 21
10 8 0 12 -4 9 -10z m-95 -55 c0 -7 8 -19 18 -24 15 -9 14 -10 -8 -11 -20 0
-25 5 -26 25 -1 14 2 25 7 25 5 0 9 -7 9 -15z m130 -75 c0 -5 -4 -10 -10 -10
-5 0 -10 5 -10 10 0 6 5 10 10 10 6 0 10 -4 10 -10z"/>
<path d="M1255 1350 c-3 -5 1 -10 9 -10 9 0 16 5 16 10 0 6 -4 10 -9 10 -6 0
-13 -4 -16 -10z"/>
<path d="M1288 1297 c7 -8 25 -11 49 -8 35 4 36 5 13 12 -14 4 -36 7 -49 8
-18 1 -21 -2 -13 -12z"/>
<path d="M1488 1255 c-6 -14 -19 -25 -30 -25 -10 0 -18 -4 -18 -10 0 -5 -8
-10 -17 -11 -10 0 -13 -3 -7 -5 6 -3 22 -1 35 4 13 5 28 9 32 8 8 -1 36 42 37
57 0 17 -21 5 -32 -18z"/>
<path d="M1120 1260 c0 -5 20 -10 44 -10 25 0 48 5 51 10 4 6 -13 10 -44 10
-28 0 -51 -4 -51 -10z"/>
<path d="M1670 1244 c0 -8 5 -12 10 -9 6 3 10 10 10 16 0 5 -4 9 -10 9 -5 0
-10 -7 -10 -16z"/>
<path d="M1515 1210 c-3 -5 1 -10 9 -10 9 0 16 5 16 10 0 6 -4 10 -9 10 -6 0
-13 -4 -16 -10z"/>
<path d="M2044 1169 c-3 -6 -17 -9 -30 -6 -13 2 -21 0 -18 -4 3 -5 -1 -9 -9
-9 -8 0 -20 -7 -27 -15 -7 -9 -28 -23 -47 -31 -26 -13 -31 -19 -22 -30 16 -19
5 -42 -23 -46 -17 -2 -22 -9 -21 -26 2 -13 -3 -22 -11 -22 -17 0 -66 -39 -49
-40 6 0 14 4 18 10 4 6 15 6 30 0 16 -6 25 -6 25 0 0 6 9 10 20 10 13 0 20 -7
20 -20 0 -13 5 -18 15 -14 22 9 18 29 -7 46 l-22 15 22 28 c12 15 22 37 22 48
0 30 18 9 26 -30 5 -25 2 -33 -16 -43 l-22 -12 23 -21 c15 -14 24 -17 27 -9 2
7 17 12 32 12 37 0 47 16 25 40 -9 10 -14 23 -11 29 3 5 0 12 -6 14 -7 3 -3 6
10 6 12 1 22 5 22 11 0 5 -6 7 -13 4 -7 -2 -17 7 -23 24 l-11 27 43 -2 c24 -1
46 2 49 7 3 6 -4 10 -15 10 -19 0 -21 4 -16 25 7 26 2 33 -10 14z m-64 -75 c0
-8 -4 -14 -9 -14 -11 0 -22 26 -14 34 9 9 23 -3 23 -20z"/>
<path d="M1905 1160 c-18 -8 -17 -9 8 -9 15 -1 27 4 27 9 0 12 -8 12 -35 0z"/>
<path d="M1855 1150 c-3 -5 1 -10 9 -10 9 0 16 5 16 10 0 6 -4 10 -9 10 -6 0
-13 -4 -16 -10z"/>
<path d="M1380 1096 c0 -2 7 -6 15 -10 8 -3 15 -1 15 4 0 6 -7 10 -15 10 -8 0
-15 -2 -15 -4z"/>
<path d="M1658 1048 c-65 -65 -123 -138 -110 -138 5 0 49 38 98 85 62 61 84
89 77 96 -8 8 -26 -4 -65 -43z"/>
<path d="M1805 1090 c3 -5 13 -10 21 -10 8 0 14 5 14 10 0 6 -9 10 -21 10 -11
0 -17 -4 -14 -10z"/>
<path d="M2067 1069 c-14 -8 -16 -14 -6 -25 6 -8 21 -14 33 -14 12 0 16 3 10
8 -7 4 -13 15 -15 24 -3 13 -8 15 -22 7z"/>
<path d="M1490 1060 c0 -5 5 -10 10 -10 6 0 10 5 10 10 0 6 -4 10 -10 10 -5 0
-10 -4 -10 -10z"/>
<path d="M1785 1059 c-12 -6 -28 -27 -37 -48 -9 -21 -31 -51 -48 -67 -18 -16
-46 -44 -63 -61 -16 -18 -38 -35 -48 -38 -11 -4 -19 -13 -19 -21 0 -11 5 -12
18 -6 9 5 22 8 28 5 5 -2 31 18 56 44 25 27 56 58 69 70 48 46 63 67 51 71
-20 6 -14 22 13 32 14 5 25 14 25 20 0 12 -18 12 -45 -1z"/>
<path d="M1496 1013 c-14 -14 -24 -28 -21 -32 3 -3 20 9 38 27 17 18 27 32 21
32 -6 0 -23 -12 -38 -27z"/>
<path d="M2057 1014 c-4 -4 -4 -10 -1 -15 6 -10 34 0 34 12 0 10 -24 12 -33 3z"/>
<path d="M1325 940 c-3 -5 1 -10 10 -10 9 0 13 5 10 10 -3 6 -8 10 -10 10 -2
0 -7 -4 -10 -10z"/>
<path d="M2008 933 c-10 -2 -21 -15 -24 -29 -8 -33 -24 -31 -25 4 l-1 27 -11
-27 c-7 -17 -19 -28 -31 -29 -16 -1 -14 -3 7 -9 16 -5 35 -14 43 -21 12 -10
16 -9 20 8 6 22 31 33 73 33 18 0 21 3 12 13 -8 10 -7 17 1 25 9 9 5 12 -17
11 -17 -1 -38 -3 -47 -6z"/>
<path d="M1797 923 c-4 -3 -7 -15 -7 -26 0 -13 5 -17 16 -13 9 3 17 6 19 6 2
0 1 9 -2 20 -5 21 -15 25 -26 13z"/>
<path d="M1868 923 c-9 -2 -28 -22 -43 -44 -21 -32 -24 -43 -14 -55 16 -19 29
-18 29 4 0 16 6 28 38 81 7 11 11 20 10 20 -2 -1 -10 -3 -20 -6z"/>
<path d="M1323 896 c3 -8 1 -17 -6 -20 -7 -2 -7 -5 -2 -5 18 -1 38 17 31 28
-10 16 -29 13 -23 -3z"/>
<path d="M1335 840 c-23 -26 -8 -26 25 0 18 14 21 20 9 20 -9 0 -24 -9 -34
-20z"/>
<path d="M1295 841 c-3 -6 -11 -9 -16 -6 -5 4 -9 2 -9 -3 0 -18 13 -21 27 -6
9 8 13 17 10 20 -3 3 -8 0 -12 -5z"/>
<path d="M1920 830 c0 -5 9 -10 20 -10 11 0 20 5 20 10 0 6 -9 10 -20 10 -11
0 -20 -4 -20 -10z"/>
<path d="M1370 810 c-13 -8 -12 -10 3 -10 9 0 17 5 17 10 0 12 -1 12 -20 0z"/>
<path d="M1540 800 c0 -5 5 -10 10 -10 6 0 10 5 10 10 0 6 -4 10 -10 10 -5 0
-10 -4 -10 -10z"/>
<path d="M1776 754 c-20 -50 -17 -67 6 -32 21 32 30 65 21 71 -5 3 -17 -15
-27 -39z"/>
<path d="M1850 780 c0 -11 7 -20 15 -20 8 0 15 9 15 20 0 11 -7 20 -15 20 -8
0 -15 -9 -15 -20z"/>
<path d="M1742 770 c-6 -11 -12 -28 -12 -37 1 -15 4 -14 20 6 20 23 27 51 12
51 -4 0 -13 -9 -20 -20z"/>
<path d="M1651 742 c-7 -13 -11 -26 -8 -28 8 -8 29 25 25 38 -3 8 -9 4 -17
-10z"/>
<path d="M1818 735 c-6 -29 1 -39 18 -25 6 6 18 9 25 8 8 -2 14 4 14 12 0 8
-6 14 -14 12 -7 -1 -19 2 -26 8 -9 8 -14 4 -17 -15z"/>
<path d="M1500 689 c0 -5 5 -7 10 -4 6 3 10 8 10 11 0 2 -4 4 -10 4 -5 0 -10
-5 -10 -11z"/>
<path d="M1536 665 c-17 -26 -21 -51 -8 -59 5 -3 16 15 25 40 18 48 9 59 -17
19z"/>
<path d="M1588 613 c-17 -4 -41 -59 -32 -74 9 -16 24 -10 24 10 0 11 4 23 10
26 13 8 33 45 23 44 -4 -1 -16 -3 -25 -6z"/>
<path d="M1617 581 c-10 -10 -21 -36 -24 -57 -6 -35 -5 -37 9 -23 8 8 23 29
32 46 27 52 18 69 -17 34z"/>
<path d="M1510 528 c0 -19 2 -20 10 -8 13 19 13 30 0 30 -5 0 -10 -10 -10 -22z"/>
<path d="M1635 470 c-3 -5 1 -10 9 -10 9 0 16 5 16 10 0 6 -4 10 -9 10 -6 0
-13 -4 -16 -10z"/>
<path d="M1920 430 c0 -5 5 -10 11 -10 5 0 7 5 4 10 -3 6 -8 10 -11 10 -2 0
-4 -4 -4 -10z"/>
<path d="M1636 423 c-11 -11 -6 -23 9 -23 8 0 15 4 15 9 0 13 -16 22 -24 14z"/>
<path d="M2037 383 c-11 -10 -8 -63 3 -63 14 0 24 50 13 61 -5 5 -12 6 -16 2z"/>
<path d="M2090 361 c0 -10 -3 -34 -6 -52 -3 -19 -2 -29 3 -23 4 6 18 16 31 23
21 11 21 13 7 41 -18 34 -35 39 -35 11z"/>
<path d="M2106 216 c3 -9 11 -16 16 -16 13 0 5 23 -10 28 -7 2 -10 -2 -6 -12z"/>
<path d="M3057 3743 c18 -2 50 -2 70 0 21 2 7 4 -32 4 -38 0 -55 -2 -38 -4z"/>
<path d="M3275 3736 c33 -7 65 -14 70 -16 6 -1 27 -2 48 -1 26 1 37 5 35 14
-3 8 -36 12 -109 14 l-104 1 60 -12z"/>
<path d="M1840 3724 c0 -12 6 -15 23 -10 12 3 31 6 42 7 17 1 16 2 -5 9 -41
13 -60 11 -60 -6z"/>
<path d="M1975 3731 c-30 -12 103 -23 140 -12 28 9 29 9 5 11 -14 0 -47 3 -75
5 -27 2 -59 0 -70 -4z"/>
<path d="M3680 3705 c13 -16 70 -21 70 -6 0 5 -14 11 -31 15 -47 9 -53 8 -39
-9z"/>
<path d="M5991 3694 c0 -11 3 -14 6 -6 3 7 2 16 -1 19 -3 4 -6 -2 -5 -13z"/>
<path d="M1828 3683 c-22 -6 -23 -26 -3 -43 8 -7 15 -25 15 -40 0 -16 6 -31
13 -33 10 -4 10 -6 0 -6 -7 -1 -13 -8 -13 -16 0 -10 10 -15 28 -15 35 0 45 9
31 27 -9 10 -8 13 5 13 9 0 16 8 16 18 0 11 10 24 23 30 l22 11 -22 7 c-12 3
-25 14 -28 24 -8 25 -45 34 -87 23z"/>
<path d="M1985 3680 c-62 -6 -57 -12 12 -14 11 -1 25 -4 29 -8 4 -5 17 -8 29
-8 13 0 27 -10 35 -25 15 -29 23 -31 40 -11 6 8 18 12 26 9 8 -3 14 -1 14 3 0
12 -20 41 -20 30 0 -5 -9 -1 -21 10 -20 18 -21 18 -31 1 -8 -15 -12 -16 -24
-6 -12 10 -12 14 -2 20 10 7 10 8 -2 7 -8 -1 -46 -4 -85 -8z"/>
<path d="M4468 3673 c7 -3 16 -2 19 1 4 3 -2 6 -13 5 -11 0 -14 -3 -6 -6z"/>
<path d="M4180 3650 c0 -5 7 -10 16 -10 8 0 12 5 9 10 -3 6 -10 10 -16 10 -5
0 -9 -4 -9 -10z"/>
<path d="M4768 3653 c6 -2 18 -2 25 0 6 3 1 5 -13 5 -14 0 -19 -2 -12 -5z"/>
<path d="M4655 3640 c-3 -5 7 -12 22 -16 15 -3 36 -8 46 -11 19 -5 24 15 5 21
-40 13 -68 15 -73 6z"/>
<path d="M4820 3640 c0 -4 11 -10 25 -12 14 -3 25 -2 25 2 0 4 -11 10 -25 12
-14 3 -25 2 -25 -2z"/>
<path d="M3874 3618 c-4 -5 1 -17 10 -26 15 -15 18 -15 26 -2 8 12 10 12 11
-5 0 -15 2 -16 6 -5 3 8 10 18 16 21 5 4 7 11 4 16 -8 13 -65 14 -73 1z"/>
<path d="M1265 3610 c-3 -5 -1 -10 4 -10 6 0 11 5 11 10 0 6 -2 10 -4 10 -3 0
-8 -4 -11 -10z"/>
<path d="M3786 3604 c-4 -10 -2 -13 6 -8 8 5 9 2 5 -9 -9 -24 25 -22 47 2 15
17 15 19 1 25 -28 10 -53 7 -59 -10z"/>
<path d="M4221 3595 c10 -10 22 -13 34 -9 18 7 18 8 -1 15 -10 4 -26 8 -34 8
-12 1 -12 -1 1 -14z"/>
<path d="M1311 3596 c2 -2 20 -6 39 -10 25 -4 31 -3 20 4 -14 9 -69 15 -59 6z"/>
<path d="M1390 3589 c0 -5 5 -7 10 -4 6 3 10 8 10 11 0 2 -4 4 -10 4 -5 0 -10
-5 -10 -11z"/>
<path d="M4565 3590 c4 -6 11 -8 16 -5 14 9 11 15 -7 15 -8 0 -12 -5 -9 -10z"/>
<path d="M4660 3591 c0 -6 5 -13 10 -16 6 -3 10 1 10 9 0 9 -4 16 -10 16 -5 0
-10 -4 -10 -9z"/>
<path d="M6175 3561 c-7 -12 12 -24 25 -16 11 7 4 25 -10 25 -5 0 -11 -4 -15
-9z"/>
<path d="M1090 3507 c0 -20 -4 -39 -10 -42 -5 -3 -10 -2 -10 4 0 12 -28 41
-41 41 -5 0 -9 -9 -9 -20 0 -11 4 -20 8 -20 15 0 35 -81 23 -93 -8 -8 -11 -3
-11 16 0 15 -7 30 -15 33 -8 4 -15 12 -15 20 0 8 -4 14 -10 14 -5 0 -10 -18
-10 -41 0 -22 4 -38 9 -34 19 11 23 -36 6 -62 -15 -22 -16 -32 -5 -66 6 -21
19 -41 28 -44 14 -3 17 -13 14 -45 -3 -23 0 -43 7 -47 6 -4 11 -31 12 -60 2
-49 4 -52 31 -58 23 -4 28 -10 25 -24 -3 -11 0 -19 8 -19 7 0 15 -18 19 -40 5
-32 10 -40 27 -40 18 0 19 -3 9 -15 -10 -12 -8 -16 14 -25 14 -5 26 -16 26
-25 0 -8 5 -15 10 -15 6 0 10 -20 10 -44 0 -38 4 -48 29 -65 16 -12 43 -24 60
-27 17 -4 31 -10 31 -15 0 -5 6 -9 13 -9 25 0 74 -149 55 -168 -12 -12 11 -52
30 -52 18 0 48 -31 56 -57 4 -13 13 -23 21 -23 7 0 15 -7 19 -15 4 -12 10 -13
30 -3 14 6 28 19 31 28 3 10 14 25 25 35 23 21 27 63 6 71 -8 3 -14 19 -14 38
0 28 3 33 19 29 28 -8 23 11 -17 67 -20 28 -34 53 -31 56 3 4 23 -10 43 -30
42 -41 54 -45 47 -16 -3 11 -9 17 -14 14 -13 -8 -11 10 4 25 10 11 7 12 -16 7
-25 -6 -27 -4 -22 17 4 16 -3 34 -24 61 -17 21 -31 41 -31 43 0 16 67 -48 91
-86 58 -92 85 -124 103 -118 14 5 20 33 10 55 -6 16 -8 27 -12 82 -1 14 -15
40 -32 58 -25 27 -28 36 -18 51 10 16 6 24 -22 49 -18 17 -40 30 -49 30 -18
-1 -101 21 -101 26 0 2 15 6 34 8 24 3 32 0 29 -9 -6 -15 3 -15 32 -3 17 7 17
9 3 9 -10 1 -18 7 -18 15 0 8 -10 18 -22 21 -47 14 -78 30 -78 41 0 16 -24 24
-70 24 -21 0 -42 5 -45 10 -3 6 -21 10 -38 10 -24 0 -28 3 -17 10 8 5 29 10
45 11 21 1 24 3 10 6 -30 7 -43 23 -20 24 16 1 15 3 -5 10 -17 6 -2 7 47 4 39
-3 74 -1 77 4 8 12 -80 31 -158 36 -65 4 -74 8 -58 28 8 10 35 12 99 10 63 -3
84 -1 73 6 -8 6 -28 11 -45 11 -29 1 -29 2 -7 11 13 5 29 6 35 2 6 -3 34 -7
62 -8 58 -1 77 -9 68 -31 -6 -16 28 -54 48 -54 6 0 9 -6 6 -14 -4 -9 4 -18 21
-25 45 -18 92 -48 85 -55 -3 -3 1 -6 10 -6 21 0 22 16 2 24 -9 3 -15 11 -14
18 4 31 -2 40 -20 35 -15 -3 -20 2 -25 24 -3 16 -12 29 -19 29 -8 0 -25 13
-40 29 -17 20 -39 31 -69 36 -73 11 -81 15 -67 31 9 11 8 14 -5 14 -9 0 -16
-7 -16 -15 0 -11 -7 -14 -25 -10 -14 3 -36 7 -50 10 -16 4 -22 10 -19 20 5 11
-1 15 -24 15 -17 0 -34 -4 -37 -10 -3 -5 -13 -10 -21 -10 -8 0 -13 4 -10 9 4
5 0 12 -6 15 -7 3 -3 3 8 1 16 -4 23 0 27 15 4 17 10 19 38 13 24 -4 30 -3 25
6 -5 7 -14 10 -21 7 -7 -2 -16 2 -19 11 -4 9 -14 13 -25 10 -12 -3 -22 1 -25
10 -3 7 -11 13 -18 12 -26 -3 -73 3 -60 8 22 9 12 23 -17 23 -16 0 -44 7 -62
15 l-34 16 35 -5 c19 -3 50 -2 68 2 31 7 32 8 18 28 -21 30 -74 39 -98 18 -17
-16 -18 -16 -18 13 0 17 -7 36 -15 43 -13 11 -15 7 -15 -23z m280 -261 c0 -11
-19 -15 -25 -6 -3 5 1 10 9 10 9 0 16 -2 16 -4z m260 -66 c0 -5 -4 -10 -10
-10 -5 0 -10 5 -10 10 0 6 5 10 10 10 6 0 10 -4 10 -10z m60 -60 c0 -5 -7 -7
-15 -4 -8 4 -12 10 -9 15 6 11 24 2 24 -11z m-112 -166 c12 -4 22 -10 22 -15
0 -10 -45 -2 -70 12 -12 7 -11 8 5 9 11 0 30 -3 43 -6z m-125 -51 c-7 -2 -21
-2 -30 0 -10 3 -4 5 12 5 17 0 24 -2 18 -5z m314 -215 c-3 -7 -5 -2 -5 12 0
14 2 19 5 13 2 -7 2 -19 0 -25z m-137 -8 c0 -5 -2 -10 -4 -10 -3 0 -8 5 -11
10 -3 6 -1 10 4 10 6 0 11 -4 11 -10z m-48 -250 c-12 -5 -25 -17 -28 -25 -6
-14 -8 -13 -20 2 -21 28 -17 33 29 32 35 0 38 -2 19 -9z m-32 -65 c0 -8 -4
-15 -10 -15 -5 0 -10 7 -10 15 0 8 5 15 10 15 6 0 10 -7 10 -15z"/>
<path d="M4500 3516 c0 -2 7 -9 15 -16 12 -10 15 -10 15 4 0 9 -7 16 -15 16
-8 0 -15 -2 -15 -4z"/>
<path d="M1568 3443 c6 -2 18 -2 25 0 6 3 1 5 -13 5 -14 0 -19 -2 -12 -5z"/>
<path d="M1717 3419 c7 -7 15 -10 18 -7 3 3 -2 9 -12 12 -14 6 -15 5 -6 -5z"/>
<path d="M802 3400 c0 -14 2 -19 5 -12 2 6 2 18 0 25 -3 6 -5 1 -5 -13z"/>
<path d="M4610 3402 c0 -5 7 -13 16 -16 10 -4 14 -1 12 6 -5 15 -28 23 -28 10z"/>
<path d="M3284 3313 c-5 -21 -6 -60 -3 -88 l6 -50 3 50 c1 28 1 61 0 75 -2 21
0 22 14 11 13 -11 16 -11 16 2 0 8 -6 20 -14 26 -11 9 -15 4 -22 -26z"/>
<path d="M802 3300 c0 -14 2 -19 5 -12 2 6 2 18 0 25 -3 6 -5 1 -5 -13z"/>
<path d="M3306 3252 c-3 -5 -1 -22 4 -38 8 -29 8 -29 9 9 1 36 -3 45 -13 29z"/>
<path d="M3420 3190 c0 -19 20 -51 29 -46 14 9 5 51 -12 54 -9 2 -17 -2 -17
-8z"/>
<path d="M1500 3180 c0 -5 12 -10 28 -9 24 0 25 1 7 9 -27 12 -35 12 -35 0z"/>
<path d="M1483 3143 c9 -2 25 -2 35 0 9 3 1 5 -18 5 -19 0 -27 -2 -17 -5z"/>
<path d="M3237 3133 c-3 -5 10 -33 30 -62 36 -53 53 -55 53 -6 -1 19 -1 19
-11 1 -10 -16 -14 -14 -39 29 -15 26 -30 43 -33 38z"/>
<path d="M1550 3120 c20 -13 33 -13 25 0 -3 6 -14 10 -23 10 -15 0 -15 -2 -2
-10z"/>
<path d="M400 3050 c0 -5 18 -10 40 -10 22 0 40 5 40 10 0 6 -18 10 -40 10
-22 0 -40 -4 -40 -10z"/>
<path d="M3327 3014 c-10 -11 16 -55 30 -50 8 3 13 -2 13 -14 0 -11 5 -20 10
-20 18 0 11 39 -12 65 -22 26 -30 29 -41 19z"/>
<path d="M2410 2955 c0 -25 5 -45 10 -45 6 0 10 20 10 45 0 25 -4 45 -10 45
-5 0 -10 -20 -10 -45z"/>
<path d="M4831 2954 c13 -16 29 -19 29 -5 0 5 -9 11 -21 14 -16 4 -18 3 -8 -9z"/>
<path d="M2460 2905 c0 -16 6 -25 16 -25 11 0 14 5 10 16 -3 9 -6 20 -6 25 0
5 -4 9 -10 9 -5 0 -10 -11 -10 -25z"/>
<path d="M2300 2890 c0 -5 5 -10 10 -10 6 0 10 5 10 10 0 6 -4 10 -10 10 -5 0
-10 -4 -10 -10z"/>
<path d="M1807 2874 c-10 -11 -8 -47 3 -64 9 -13 12 -13 24 2 12 17 14 17 30
-1 17 -19 17 -20 -11 -23 l-28 -3 24 -14 c21 -12 26 -11 37 3 16 22 7 52 -21
70 -18 12 -25 12 -28 3 -3 -7 -8 -2 -14 11 -5 13 -12 20 -16 16z"/>
<path d="M2308 2793 c7 -3 16 -2 19 1 4 3 -2 6 -13 5 -11 0 -14 -3 -6 -6z"/>
<path d="M1890 2755 c0 -2 9 -9 20 -15 16 -9 20 -8 20 5 0 8 -9 15 -20 15 -11
0 -20 -2 -20 -5z"/>
<path d="M2378 2753 c7 -3 16 -2 19 1 4 3 -2 6 -13 5 -11 0 -14 -3 -6 -6z"/>
<path d="M3370 2746 c0 -8 5 -18 10 -21 6 -3 10 1 10 9 0 8 -4 18 -10 21 -5 3
-10 -1 -10 -9z"/>
<path d="M2553 2643 c9 -2 25 -2 35 0 9 3 1 5 -18 5 -19 0 -27 -2 -17 -5z"/>
<path d="M2455 2499 c-9 -14 -2 -20 14 -10 8 6 9 11 3 15 -6 3 -14 1 -17 -5z"/>
<path d="M3795 2490 c-3 -5 -1 -10 4 -10 6 0 11 5 11 10 0 6 -2 10 -4 10 -3 0
-8 -4 -11 -10z"/>
<path d="M3602 2448 c13 -18 33 -44 46 -58 12 -13 22 -28 22 -33 0 -4 4 -6 9
-3 5 3 11 -1 15 -9 6 -16 36 -21 36 -5 0 26 -26 59 -57 74 -20 9 -45 28 -55
42 -29 36 -42 29 -16 -8z"/>
<path d="M1324 2330 c0 -20 7 -25 19 -14 7 7 -2 34 -12 34 -4 0 -7 -9 -7 -20z"/>
<path d="M3515 2310 c3 -5 10 -10 16 -10 5 0 9 5 9 10 0 6 -7 10 -16 10 -8 0
-12 -4 -9 -10z"/>
<path d="M3885 2295 c-15 -14 -25 -28 -21 -32 3 -4 19 5 33 20 35 34 26 44
-12 12z"/>
<path d="M4175 2216 c-5 -2 -42 -9 -82 -16 -39 -6 -80 -18 -90 -26 -16 -13
-16 -14 12 -8 17 4 35 9 40 13 17 9 35 10 29 0 -3 -5 -13 -9 -22 -9 -15 0 -15
-2 -2 -11 11 -8 8 -9 -15 -5 -22 5 -26 4 -14 -3 8 -6 67 -11 130 -12 183 -2
216 -16 42 -17 -180 -1 -224 -13 -112 -32 41 -6 107 -18 148 -26 92 -18 111
-18 111 0 0 8 7 17 15 20 9 3 15 14 13 23 -2 10 2 17 9 16 7 -2 20 8 29 22 9
14 23 25 30 25 8 0 14 7 14 15 0 12 12 14 55 12 53 -2 74 6 38 15 -23 5 -365
9 -378 4z"/>
<path d="M4620 2199 c0 -5 5 -7 10 -4 6 3 10 8 10 11 0 2 -4 4 -10 4 -5 0 -10
-5 -10 -11z"/>
<path d="M3928 2173 c6 -2 18 -2 25 0 6 3 1 5 -13 5 -14 0 -19 -2 -12 -5z"/>
<path d="M2560 2091 c0 -5 -8 -12 -17 -14 -10 -3 -2 -5 17 -6 23 0 30 2 21 8
-11 7 -11 9 0 14 10 4 9 6 -3 6 -10 1 -18 -3 -18 -8z"/>
<path d="M2646 2080 c32 -13 43 -34 13 -25 l-24 7 22 -19 c19 -17 30 -19 63
-13 51 9 65 21 16 13 -24 -4 -36 -2 -36 6 0 6 8 11 18 12 9 0 -3 7 -28 15 -49
15 -78 18 -44 4z"/>
<path d="M2985 2070 c3 -5 10 -10 16 -10 5 0 9 5 9 10 0 6 -7 10 -16 10 -8 0
-12 -4 -9 -10z"/>
<path d="M1465 2050 c3 -5 12 -7 20 -3 21 7 19 13 -6 13 -11 0 -18 -4 -14 -10z"/>
<path d="M2188 2043 c7 -3 16 -2 19 1 4 3 -2 6 -13 5 -11 0 -14 -3 -6 -6z"/>
<path d="M2545 2040 c-3 -5 1 -10 10 -10 9 0 13 5 10 10 -3 6 -8 10 -10 10 -2
0 -7 -4 -10 -10z"/>
<path d="M2810 2029 c0 -5 5 -7 10 -4 6 3 10 8 10 11 0 2 -4 4 -10 4 -5 0 -10
-5 -10 -11z"/>
<path d="M2713 1986 c0 -11 1 -15 4 -7 5 11 7 11 14 0 7 -11 9 -11 9 2 0 26
-26 31 -27 5z"/>
<path d="M2640 1990 c0 -5 5 -10 10 -10 6 0 10 5 10 10 0 6 -4 10 -10 10 -5 0
-10 -4 -10 -10z"/>
<path d="M2265 1980 c-3 -5 -2 -10 4 -10 5 0 13 5 16 10 3 6 2 10 -4 10 -5 0
-13 -4 -16 -10z"/>
<path d="M2205 1970 c28 -12 37 -12 30 0 -3 6 -16 10 -28 9 -21 0 -21 -1 -2
-9z"/>
<path d="M2140 1961 c0 -12 28 -22 35 -12 3 5 -2 12 -11 15 -21 8 -24 8 -24
-3z"/>
<path d="M3323 1963 c-22 -8 -15 -32 7 -26 20 5 26 18 13 26 -5 2 -14 2 -20 0z"/>
<path d="M2542 1947 c-12 -7 -20 -16 -17 -19 6 -6 70 14 81 25 12 12 -40 7
-64 -6z"/>
<path d="M3208 1929 c-3 -8 -11 -14 -19 -15 -8 0 -24 -2 -36 -2 -13 -1 -23 -8
-23 -14 0 -10 -27 -13 -97 -15 -96 -1 -213 -27 -213 -47 0 -4 8 -5 18 -1 37
17 172 34 264 34 72 1 100 5 112 16 8 8 24 15 35 15 24 0 37 18 23 32 -8 8
-16 7 -27 -2 -14 -11 -18 -11 -25 -1 -6 11 -8 11 -12 0z"/>
<path d="M3612 1898 c6 -18 28 -21 28 -4 0 9 -7 16 -16 16 -9 0 -14 -5 -12
-12z"/>
<path d="M3098 1853 c7 -3 16 -2 19 1 4 3 -2 6 -13 5 -11 0 -14 -3 -6 -6z"/>
<path d="M3350 1845 c-10 -13 -9 -15 8 -15 15 0 20 5 16 15 -4 8 -7 15 -9 15
-1 0 -8 -7 -15 -15z"/>
<path d="M3035 1820 c-44 -16 -47 -18 -20 -19 39 -1 105 17 105 29 0 14 -27
10 -85 -10z"/>
<path d="M3561 1824 c0 -11 3 -14 6 -6 3 7 2 16 -1 19 -3 4 -6 -2 -5 -13z"/>
<path d="M3232 1770 c-24 -28 -40 -50 -35 -50 13 1 93 77 93 89 0 20 -15 10
-58 -39z"/>
<path d="M2940 1806 c0 -2 7 -6 15 -10 8 -3 15 -1 15 4 0 6 -7 10 -15 10 -8 0
-15 -2 -15 -4z"/>
<path d="M2875 1782 c-16 -10 -43 -22 -60 -26 -16 -4 -38 -15 -47 -23 -10 -8
-24 -13 -33 -10 -9 4 -15 1 -15 -7 0 -18 -22 -26 -49 -19 -12 3 -21 1 -21 -4
0 -14 -47 -34 -64 -27 -8 3 -17 0 -22 -7 -5 -9 -2 -10 9 -6 10 3 17 2 17 -3 0
-10 -13 -14 -42 -11 -21 3 -23 -10 -6 -27 9 -9 7 -12 -8 -12 -13 0 -25 10 -32
25 -10 22 -15 24 -32 15 -13 -7 -20 -19 -18 -33 2 -15 -5 -25 -24 -35 -16 -7
-28 -21 -28 -32 0 -10 -6 -21 -12 -23 -7 -3 3 -3 22 1 56 10 73 8 77 -8 4 -13
3 -13 -6 0 -16 23 -45 -1 -52 -44 -5 -32 -4 -36 13 -30 10 3 25 1 32 -5 17
-14 46 -4 46 16 0 19 29 48 38 38 4 -4 1 -10 -5 -12 -7 -3 -13 -12 -13 -20 0
-13 3 -13 15 -3 18 15 20 4 2 -14 -7 -7 -17 -11 -23 -9 -14 5 -46 -64 -34 -72
6 -3 20 5 32 18 13 13 43 46 68 72 25 26 44 54 42 64 -2 12 -1 13 6 3 6 -9 24
2 67 43 33 30 62 55 66 55 4 0 35 18 68 40 33 22 63 40 66 40 12 0 75 47 69
52 -3 3 -18 -1 -35 -9 -16 -8 -35 -13 -42 -10 -7 3 -5 8 8 13 11 4 26 14 34
21 30 30 -88 -14 -154 -58 -16 -10 -38 -22 -47 -25 -16 -6 -22 -16 -20 -35 1
-4 -8 -5 -18 -2 -23 6 -27 23 -7 23 8 0 22 9 32 20 10 11 24 20 32 20 7 0 13
4 13 8 0 5 12 15 27 23 90 47 126 69 113 69 -8 0 -28 -8 -45 -18z m-70 -132
c-16 -11 -34 -20 -40 -20 -5 0 4 9 20 20 17 11 35 20 40 20 6 0 -3 -9 -20 -20z
m-305 -50 c0 -5 -4 -10 -10 -10 -5 0 -10 5 -10 10 0 6 5 10 10 10 6 0 10 -4
10 -10z m121 -48 c-25 -26 -47 -44 -49 -40 -5 12 40 67 60 74 10 3 16 10 13
15 -3 5 0 6 8 3 9 -3 0 -19 -32 -52z m-7 -57 c-4 -8 -11 -15 -16 -15 -6 0 -5
6 2 15 7 8 14 15 16 15 2 0 1 -7 -2 -15z m-74 -89 c0 -3 -4 -8 -10 -11 -5 -3
-10 -1 -10 4 0 6 5 11 10 11 6 0 10 -2 10 -4z"/>
<path d="M1680 1725 c0 -16 35 -20 65 -9 13 5 14 8 3 15 -22 15 -68 11 -68 -6z"/>
<path d="M2985 1704 c-16 -8 -43 -23 -60 -34 -16 -11 -37 -23 -45 -27 -16 -7
-157 -112 -197 -147 -44 -37 -133 -127 -133 -133 0 -7 29 18 69 57 15 14 44
39 66 55 22 16 42 32 45 35 22 22 102 80 130 95 19 10 37 21 40 24 11 13 73
41 91 41 12 0 17 4 13 11 -3 6 0 15 7 20 25 15 5 18 -26 3z"/>
<path d="M3216 1685 c-3 -8 -1 -15 4 -15 6 0 10 7 10 15 0 8 -2 15 -4 15 -2 0
-6 -7 -10 -15z"/>
<path d="M2985 1653 c-11 -3 -22 -8 -25 -12 -3 -3 -64 -46 -136 -94 -147 -98
-217 -154 -208 -168 3 -5 -4 -9 -15 -9 -11 0 -25 -9 -31 -20 -8 -14 -8 -20 0
-20 6 0 13 7 16 15 9 23 23 18 17 -6 -3 -11 -12 -23 -20 -26 -10 -4 -6 -12 15
-32 30 -27 51 -81 32 -81 -6 0 -10 -6 -9 -12 4 -30 -3 -48 -26 -76 -13 -16
-22 -32 -18 -36 3 -3 1 -6 -6 -6 -8 0 -11 8 -8 20 4 15 -4 27 -31 45 -20 14
-40 25 -44 25 -5 0 -8 -16 -8 -35 0 -19 4 -35 9 -35 4 0 23 -16 42 -35 19 -19
40 -35 47 -35 7 0 15 -7 18 -15 9 -22 34 -18 34 6 0 11 7 27 15 36 14 14 15
13 9 -13 -4 -16 -13 -41 -20 -56 -16 -31 -18 -58 -5 -58 5 0 12 9 16 19 6 21
65 98 65 86 0 -4 -9 -18 -20 -32 -11 -14 -20 -32 -20 -39 0 -8 -4 -14 -8 -14
-12 0 -32 -46 -32 -72 0 -14 5 -18 15 -14 9 3 15 0 15 -10 0 -13 16 -23 64
-38 15 -5 16 -9 6 -21 -16 -19 -3 -40 16 -24 8 6 14 17 14 24 0 7 6 15 14 18
8 3 19 22 26 41 6 20 17 36 23 36 7 1 30 23 52 50 22 27 61 63 88 80 26 18 47
35 47 40 0 4 11 11 25 14 24 6 45 53 45 103 0 36 50 234 66 262 l15 26 -6 -25
c-69 -266 -83 -350 -61 -350 33 0 43 26 55 140 7 63 14 133 16 155 2 22 14 76
26 120 32 120 32 127 -14 129 -36 1 -49 -8 -24 -17 7 -4 6 -6 -5 -6 -9 -1 -24
-4 -34 -8 -12 -4 -15 -3 -10 5 4 7 3 12 -2 12 -12 0 -73 -70 -86 -100 -5 -14
-25 -43 -43 -66 -18 -23 -33 -46 -33 -52 0 -6 -3 -12 -7 -14 -8 -3 -62 -88
-100 -158 -17 -30 -62 -118 -119 -233 -8 -16 -14 -35 -14 -42 0 -8 -4 -16 -9
-19 -12 -8 -1 34 16 59 7 11 13 29 13 41 0 24 22 68 145 288 48 88 104 176
122 195 41 42 108 140 101 146 -3 3 -25 -18 -49 -46 -24 -28 -51 -60 -60 -70
-8 -10 -24 -30 -35 -45 -10 -14 -38 -50 -62 -78 -24 -28 -64 -85 -90 -126 -55
-90 -51 -84 -57 -78 -10 10 28 83 65 125 21 24 45 58 53 76 9 18 35 53 59 78
74 77 87 93 103 132 16 39 14 41 -30 30z m-14 -56 c-10 -9 -11 -8 -5 6 3 10 9
15 12 12 3 -3 0 -11 -7 -18z m-123 -100 c5 -24 -15 -21 -28 4 -10 18 -9 20 7
17 10 -2 19 -11 21 -21z m-48 -17 c13 -8 13 -10 -2 -10 -9 0 -20 5 -23 10 -8
13 5 13 25 0z m-5 -30 c8 -13 -5 -13 -25 0 -13 8 -13 10 2 10 9 0 20 -4 23
-10z m231 -36 c-3 -9 -6 -22 -6 -30 0 -8 -4 -14 -9 -14 -7 0 -8 34 -2 58 1 1
6 2 12 2 6 0 8 -7 5 -16z m-153 -49 c-3 -9 -8 -14 -10 -11 -3 3 -2 9 2 15 9
16 15 13 8 -4z m-193 -109 c0 -3 -4 -8 -10 -11 -5 -3 -10 -1 -10 4 0 6 5 11
10 11 6 0 10 -2 10 -4z m59 -90 c0 -6 -3 -5 -6 2 -8 20 -21 14 -28 -15 -6 -29
-32 -70 -39 -62 -2 2 8 30 22 63 23 53 27 57 39 40 7 -10 13 -23 12 -28z
m-119 -102 c0 -8 -4 -12 -10 -9 -5 3 -10 10 -10 16 0 5 5 9 10 9 6 0 10 -7 10
-16z m52 -186 c-7 -7 -12 -8 -12 -2 0 14 12 26 19 19 2 -3 -1 -11 -7 -17z"/>
<path d="M1945 1530 c-3 -5 1 -10 10 -10 9 0 13 5 10 10 -3 6 -8 10 -10 10 -2
0 -7 -4 -10 -10z"/>
<path d="M4500 1520 c20 -13 33 -13 25 0 -3 6 -14 10 -23 10 -15 0 -15 -2 -2
-10z"/>
<path d="M2152 1390 c0 -14 2 -19 5 -12 2 6 2 18 0 25 -3 6 -5 1 -5 -13z"/>
<path d="M2435 1400 c3 -5 8 -10 11 -10 2 0 4 5 4 10 0 6 -5 10 -11 10 -5 0
-7 -4 -4 -10z"/>
<path d="M2106 1381 c-5 -7 -3 -18 3 -24 14 -14 20 -6 11 17 -5 15 -9 16 -14
7z"/>
<path d="M5091 1184 c0 -11 3 -14 6 -6 3 7 2 16 -1 19 -3 4 -6 -2 -5 -13z"/>
<path d="M2345 1170 c-3 -5 -2 -10 4 -10 5 0 13 5 16 10 3 6 2 10 -4 10 -5 0
-13 -4 -16 -10z"/>
<path d="M2420 1151 c0 -12 6 -21 16 -21 9 0 14 7 12 17 -5 25 -28 28 -28 4z"/>
<path d="M2365 1120 c-3 -5 -1 -10 4 -10 6 0 11 5 11 10 0 6 -2 10 -4 10 -3 0
-8 -4 -11 -10z"/>
<path d="M2410 1100 c-17 -11 -13 -15 21 -24 18 -4 29 -1 32 8 10 26 -22 36
-53 16z"/>
<path d="M2218 1073 c-24 -6 -23 -23 2 -23 11 0 20 7 20 15 0 8 -1 14 -2 14
-2 -1 -11 -3 -20 -6z"/>
<path d="M3240 890 c0 -5 5 -10 10 -10 6 0 10 5 10 10 0 6 -4 10 -10 10 -5 0
-10 -4 -10 -10z"/>
<path d="M3200 855 c0 -13 8 -28 17 -34 14 -8 15 -12 4 -25 -7 -9 -17 -13 -22
-10 -5 3 -9 -4 -9 -16 0 -12 5 -18 10 -15 21 13 24 -28 3 -44 -11 -9 -18 -22
-15 -29 2 -6 -1 -12 -7 -12 -6 0 -11 12 -12 28 -1 29 -3 24 -13 -21 -7 -30
-26 -28 -26 4 0 21 -15 26 -25 8 -4 -5 1 -19 11 -30 16 -18 15 -20 -18 -23 -7
0 -23 -11 -36 -24 -19 -20 -21 -30 -16 -60 4 -21 7 -53 7 -72 -1 -32 0 -33 13
-15 8 10 14 13 14 7 0 -7 5 -12 10 -12 6 0 10 7 10 16 0 8 5 12 10 9 6 -3 11
2 11 12 1 10 3 27 5 38 2 11 5 35 7 54 4 49 25 51 29 4 2 -29 8 -38 23 -40 11
-2 14 0 8 3 -7 3 -13 13 -13 22 1 21 29 72 30 53 0 -11 4 -10 20 4 13 11 25
15 37 10 10 -5 21 -9 25 -9 15 -2 19 -16 8 -35 -9 -18 -8 -21 10 -21 12 0 24
-9 30 -22 5 -13 9 -17 9 -10 1 9 8 11 21 7 14 -4 20 -2 20 9 0 8 -5 18 -10 21
-6 4 -8 16 -4 27 5 17 3 19 -17 13 -21 -7 -22 -5 -16 28 4 27 2 37 -11 42 -15
6 -15 8 2 20 17 13 17 15 3 21 -22 8 -48 -19 -45 -47 2 -12 -2 -23 -7 -25 -6
-3 -10 15 -11 41 0 34 4 45 15 45 12 0 12 3 3 12 -18 18 -14 38 8 38 11 0 20
4 20 9 0 5 -9 13 -20 16 -11 3 -20 11 -20 16 0 5 -8 9 -19 9 -10 0 -24 7 -31
15 -18 22 -30 18 -30 -10z"/>
<path d="M2611 834 c0 -11 3 -14 6 -6 3 7 2 16 -1 19 -3 4 -6 -2 -5 -13z"/>
<path d="M2510 739 c0 -5 5 -7 10 -4 6 3 10 8 10 11 0 2 -4 4 -10 4 -5 0 -10
-5 -10 -11z"/>
<path d="M2710 714 c-9 -10 -10 -18 -3 -25 8 -8 14 -5 22 9 13 25 -2 38 -19
16z"/>
<path d="M3658 723 c7 -3 16 -2 19 1 4 3 -2 6 -13 5 -11 0 -14 -3 -6 -6z"/>
<path d="M2416 711 c-3 -5 8 -11 25 -13 32 -5 49 6 23 16 -22 9 -42 7 -48 -3z"/>
<path d="M3366 705 c-9 -23 -8 -27 5 -19 9 5 10 -1 5 -21 -6 -25 -5 -27 8 -16
9 8 16 20 16 27 0 8 5 14 10 14 6 0 10 -4 10 -10 0 -5 5 -10 10 -10 6 0 10 9
10 20 0 13 -7 20 -19 20 -11 0 -26 3 -34 6 -8 3 -17 -2 -21 -11z"/>
<path d="M2408 673 c-10 -2 -18 -9 -18 -15 0 -6 -13 -8 -35 -4 -28 6 -35 4
-35 -9 0 -13 7 -15 34 -9 30 5 35 3 39 -18 3 -18 5 -16 6 10 1 21 6 32 16 32
8 0 15 5 15 10 0 6 -1 9 -2 9 -2 -1 -11 -3 -20 -6z"/>
<path d="M2260 657 c-8 -7 -16 -28 -17 -47 l-3 -35 16 28 c8 15 21 27 29 27 8
0 15 9 15 20 0 22 -17 26 -40 7z"/>
<path d="M2475 660 c3 -5 8 -10 11 -10 2 0 4 5 4 10 0 6 -5 10 -11 10 -5 0 -7
-4 -4 -10z"/>
<path d="M2696 654 c-7 -19 2 -37 15 -29 12 8 12 45 0 45 -5 0 -12 -7 -15 -16z"/>
<path d="M3510 650 c0 -6 4 -10 9 -10 5 0 12 -10 14 -22 4 -21 4 -20 6 3 0 16
-5 29 -14 33 -8 3 -15 1 -15 -4z"/>
<path d="M2435 620 c-3 -5 -1 -10 4 -10 6 0 11 5 11 10 0 6 -2 10 -4 10 -3 0
-8 -4 -11 -10z"/>
<path d="M3410 620 c0 -5 6 -10 13 -10 6 0 23 -3 37 -6 24 -5 24 -5 6 10 -22
18 -56 21 -56 6z"/>
<path d="M2330 589 c0 -5 5 -7 10 -4 6 3 10 8 10 11 0 2 -4 4 -10 4 -5 0 -10
-5 -10 -11z"/>
<path d="M3410 569 c0 -11 5 -17 10 -14 6 3 10 13 10 21 0 8 -4 14 -10 14 -5
0 -10 -9 -10 -21z"/>
<path d="M3477 583 c-10 -9 -9 -43 2 -43 5 0 11 6 14 13 6 17 -7 40 -16 30z"/>
<path d="M2215 570 c-3 -5 -1 -10 4 -10 6 0 11 5 11 10 0 6 -2 10 -4 10 -3 0
-8 -4 -11 -10z"/>
<path d="M3553 544 c-1 -19 3 -37 8 -40 5 -3 9 11 9 30 0 19 -4 37 -8 40 -4 3
-9 -11 -9 -30z"/>
<path d="M3010 557 c0 -12 -8 -17 -31 -17 -17 0 -28 -4 -24 -10 7 -12 -26 -46
-54 -55 -12 -3 -21 -10 -21 -15 0 -4 -8 -7 -17 -6 -10 0 -17 -5 -15 -11 2 -15
-17 -17 -37 -4 -9 6 -23 5 -38 -2 -17 -8 -23 -18 -23 -44 0 -32 1 -33 40 -31
22 1 43 -2 47 -5 3 -4 -6 -7 -20 -7 -19 0 -27 -5 -27 -17 0 -13 3 -14 12 -5 7
7 27 12 45 12 29 0 33 -3 34 -27 1 -16 1 -36 0 -45 -3 -29 19 -20 30 11 7 20
15 28 25 24 8 -3 14 0 14 6 0 5 18 28 41 51 40 40 41 42 42 115 1 48 -2 78
-10 86 -11 11 -13 10 -13 -4z m-2 -116 c-8 -12 -17 -18 -21 -15 -3 3 2 14 11
25 21 24 28 16 10 -10z m-46 -13 c-7 -7 -12 -8 -12 -2 0 14 12 26 19 19 2 -3
-1 -11 -7 -17z m-147 -28 c3 -5 1 -10 -4 -10 -6 0 -11 5 -11 10 0 6 2 10 4 10
3 0 8 -4 11 -10z m139 4 c22 -9 20 -30 -6 -54 -20 -18 -24 -19 -34 -6 -6 9
-13 13 -16 11 -3 -3 -20 2 -39 10 -30 13 -31 15 -9 14 33 -3 80 11 80 22 0 11
3 11 24 3z"/>
<path d="M2362 535 c0 -16 2 -22 5 -12 2 9 2 23 0 30 -3 6 -5 -1 -5 -18z"/>
<path d="M3245 549 c-4 -6 -5 -12 -2 -15 2 -3 7 2 10 11 7 17 1 20 -8 4z"/>
<path d="M3276 522 c-4 -24 -6 -46 -2 -49 8 -8 18 42 14 68 -3 18 -6 13 -12
-19z"/>
<path d="M3700 550 c0 -5 5 -10 10 -10 6 0 10 5 10 10 0 6 -4 10 -10 10 -5 0
-10 -4 -10 -10z"/>
<path d="M2392 538 c3 -7 13 -15 22 -16 12 -3 17 1 14 10 -3 7 -13 15 -22 16
-12 3 -17 -1 -14 -10z"/>
<path d="M3185 513 c-3 -10 -1 -19 4 -21 6 -2 11 -10 11 -18 0 -8 5 -14 11
-14 6 0 8 7 5 16 -3 9 -6 24 -6 35 0 24 -16 25 -25 2z"/>
<path d="M3330 510 c0 -5 5 -10 11 -10 5 0 7 5 4 10 -3 6 -8 10 -11 10 -2 0
-4 -4 -4 -10z"/>
<path d="M3472 500 c0 -14 2 -19 5 -12 2 6 2 18 0 25 -3 6 -5 1 -5 -13z"/>
<path d="M3335 480 c3 -5 8 -10 11 -10 2 0 4 5 4 10 0 6 -5 10 -11 10 -5 0 -7
-4 -4 -10z"/>
<path d="M3367 443 c-10 -56 -9 -109 2 -97 11 12 20 109 11 124 -4 6 -10 -6
-13 -27z"/>
<path d="M3146 433 c4 -16 11 -37 16 -48 7 -17 8 -16 3 5 -2 14 -5 35 -5 48 0
12 -5 22 -10 22 -6 0 -8 -11 -4 -27z"/>
<path d="M2230 445 c0 -10 29 -24 34 -17 3 6 -3 12 -14 15 -11 3 -20 4 -20 2z"/>
<path d="M3062 420 c0 -14 2 -19 5 -12 2 6 2 18 0 25 -3 6 -5 1 -5 -13z"/>
<path d="M3306 414 c-4 -14 -5 -29 -2 -31 3 -3 8 7 12 21 3 15 4 29 1 32 -2 3
-8 -7 -11 -22z"/>
<path d="M3497 403 c-4 -3 -7 -11 -7 -17 0 -6 5 -5 12 2 6 6 9 14 7 17 -3 3
-9 2 -12 -2z"/>
<path d="M3017 373 c-13 -12 -7 -41 9 -47 22 -8 23 -6 17 27 -5 27 -13 33 -26
20z"/>
<path d="M3240 358 c-9 -19 -9 -31 -1 -44 9 -17 10 -16 11 9 0 28 14 37 23 15
3 -7 6 -8 6 -2 1 5 -5 19 -13 29 -14 19 -15 19 -26 -7z"/>
<path d="M3461 364 c0 -11 3 -14 6 -6 3 7 2 16 -1 19 -3 4 -6 -2 -5 -13z"/>
<path d="M2710 360 c-13 -8 -12 -10 3 -10 9 0 17 5 17 10 0 12 -1 12 -20 0z"/>
<path d="M3202 357 c-10 -11 -11 -21 -3 -34 9 -17 10 -17 16 -1 4 9 5 25 3 34
-3 16 -4 16 -16 1z"/>
<path d="M3560 349 c0 -11 5 -17 10 -14 6 3 10 13 10 21 0 8 -4 14 -10 14 -5
0 -10 -9 -10 -21z"/>
<path d="M3715 320 c3 -5 8 -10 11 -10 2 0 4 5 4 10 0 6 -5 10 -11 10 -5 0 -7
-4 -4 -10z"/>
<path d="M2822 307 c-22 -10 -25 -28 -6 -34 9 -3 39 36 32 42 -2 1 -13 -2 -26
-8z"/>
<path d="M2965 287 c-4 -10 -5 -21 -1 -24 10 -10 18 4 13 24 -4 17 -4 17 -12
0z"/>
<path d="M3102 269 c0 -17 0 -29 2 -28 35 52 37 59 18 59 -14 0 -19 -8 -20
-31z"/>
<path d="M3015 240 c-30 -48 -31 -54 -5 -40 11 6 23 22 26 36 5 19 9 22 15 13
10 -17 23 -4 16 16 -10 25 -25 18 -52 -25z"/>
<path d="M2825 239 c-4 -6 -4 -13 -1 -16 3 -4 6 -1 6 5 0 6 8 13 18 15 15 4
15 5 0 6 -9 0 -20 -4 -23 -10z"/>
<path d="M3456 235 c4 -8 10 -15 15 -15 5 0 9 7 9 15 0 8 -7 15 -15 15 -9 0
-12 -6 -9 -15z"/>
<path d="M2908 225 c-16 -12 -20 -65 -6 -65 6 0 17 8 24 18 12 15 14 13 15
-18 1 -19 3 -27 6 -18 3 10 11 15 21 12 15 -5 15 -4 0 6 -10 6 -18 16 -18 23
0 9 2 9 8 0 5 -8 8 1 9 22 1 30 -2 34 -22 33 -13 -1 -30 -7 -37 -13z"/>
<path d="M3740 223 c0 -13 5 -23 10 -23 13 0 13 11 0 30 -8 12 -10 11 -10 -7z"/>
<path d="M2846 223 c-11 -11 -6 -23 9 -23 8 0 15 4 15 9 0 13 -16 22 -24 14z"/>
<path d="M3281 214 c0 -11 3 -14 6 -6 3 7 2 16 -1 19 -3 4 -6 -2 -5 -13z"/>
<path d="M3050 200 c0 -11 -3 -19 -7 -18 -5 2 -19 -5 -32 -14 -18 -13 -22 -23
-19 -47 3 -22 0 -31 -11 -34 -10 -3 -7 -5 7 -6 20 -1 22 -4 16 -41 -4 -27 -3
-40 5 -40 15 0 14 95 -1 120 -10 15 -10 22 0 32 9 9 12 8 12 -6 0 -15 3 -16
15 -6 13 11 15 8 15 -18 0 -17 4 -33 9 -36 11 -7 21 17 21 50 0 13 6 24 13 25
6 0 2 4 -11 10 -18 7 -22 14 -17 29 4 11 2 20 -4 20 -6 0 -11 -9 -11 -20z"/>
<path d="M2737 168 c-21 -36 -14 -52 16 -36 12 6 29 14 37 18 22 10 18 35 -5
33 -11 -1 -22 2 -25 7 -3 5 -13 -5 -23 -22z"/>
<path d="M3430 191 c0 -5 5 -13 10 -16 6 -3 10 -2 10 4 0 5 -4 13 -10 16 -5 3
-10 2 -10 -4z"/>
<path d="M3600 181 c0 -12 5 -21 10 -21 6 0 10 6 10 14 0 8 -4 18 -10 21 -5 3
-10 -3 -10 -14z"/>
<path d="M3290 141 c0 -11 5 -23 10 -26 6 -4 8 -16 5 -28 -4 -16 -4 -18 3 -7
11 18 4 80 -9 80 -5 0 -9 -9 -9 -19z"/>
<path d="M3362 140 c0 -14 3 -34 8 -45 l9 -20 -1 20 c0 11 -4 31 -8 45 l-8 25
0 -25z"/>
<path d="M3641 133 c-1 -17 4 -35 9 -38 12 -7 12 22 0 50 -7 17 -9 15 -9 -12z"/>
<path d="M3195 118 c-10 -50 0 -71 14 -33 8 19 9 36 3 50 -9 18 -10 16 -17
-17z"/>
<path d="M1213 133 c-7 -2 -13 -11 -13 -19 0 -16 42 -4 48 14 4 12 -13 15 -35
5z"/>
<path d="M3702 120 c0 -14 2 -19 5 -12 2 6 2 18 0 25 -3 6 -5 1 -5 -13z"/>
<path d="M3104 103 c-21 -65 -27 -75 -36 -59 -12 22 -28 11 -28 -18 0 -21 5
-24 38 -24 l37 -1 1 60 c1 61 -2 72 -12 42z"/>
<path d="M3225 61 c-4 -29 -5 -54 -3 -57 8 -8 25 85 18 97 -4 6 -11 -12 -15
-40z"/>
<path d="M2865 90 c-3 -5 -1 -10 4 -10 6 0 11 5 11 10 0 6 -2 10 -4 10 -3 0
-8 -4 -11 -10z"/>
<path d="M3157 64 c-3 -3 -3 -12 0 -20 3 -8 0 -21 -7 -29 -11 -13 -8 -15 15
-15 23 0 26 3 21 22 -3 13 -6 29 -6 36 0 13 -12 16 -23 6z"/>
<path d="M3390 60 c0 -5 5 -10 11 -10 5 0 7 5 4 10 -3 6 -8 10 -11 10 -2 0 -4
-4 -4 -10z"/>
<path d="M3251 14 c0 -11 3 -14 6 -6 3 7 2 16 -1 19 -3 4 -6 -2 -5 -13z"/>
<path d="M3520 16 c0 -9 5 -16 10 -16 6 0 10 4 10 9 0 6 -4 13 -10 16 -5 3
-10 -1 -10 -9z"/>
<path d="M2970 10 c0 -5 5 -10 10 -10 6 0 10 5 10 10 0 6 -4 10 -10 10 -5 0
-10 -4 -10 -10z"/>
<path d="M3600 9 c0 -5 9 -9 20 -9 11 0 20 4 20 8 0 4 -9 8 -20 9 -11 1 -20
-2 -20 -8z"/>
</g>
</svg>
